<?xml version="1.0" encoding="utf-8"?>
<!-- Generator: Adobe Illustrator 27.8.0, SVG Export Plug-In . SVG Version: 6.00 Build 0)  -->
<svg version="1.1" id="Capa_1" xmlns="http://www.w3.org/2000/svg" xmlns:xlink="http://www.w3.org/1999/xlink" x="0px" y="0px"
	 viewBox="0 0 595.3 595.3" style="enable-background:new 0 0 595.3 595.3;" xml:space="preserve">
<style type="text/css">
	.st0{fill:#FEFEFE;}
	.st1{fill:#051E29;}
	.st2{fill:#2C6DB0;}
	.st3{fill:#2E68A9;}
	.st4{fill:#24588A;}
	.st5{fill:#275C92;}
	.st6{fill:#225483;}
	.st7{fill:#133A56;}
	.st8{fill:#20527E;}
	.st9{fill:#1B4A70;}
	.st10{fill:#0F324A;}
	.st11{fill:#1D4D76;}
	.st12{fill:#1F4F7A;}
	.st13{fill:#113751;}
	.st14{fill:#05212F;}
	.st15{fill:#1B486E;}
	.st16{fill:#20517E;}
	.st17{fill:#295F98;}
	.st18{fill:#5F89C4;}
	.st19{fill:#698EC8;}
	.st20{fill:#4379BA;}
	.st21{fill:#0C2D42;}
	.st22{fill:#20517D;}
	.st23{fill:#174162;}
	.st24{fill:#275D93;}
	.st25{fill:#052130;}
	.st26{fill:#7193CB;}
	.st27{fill:#809ED2;}
	.st28{fill:#2A619B;}
	.st29{fill:#2A629C;}
	.st30{fill:#133954;}
	.st31{fill:#225484;}
	.st32{fill:#1D4D75;}
	.st33{fill:#235788;}
	.st34{fill:#082638;}
	.st35{fill:#255A8D;}
	.st36{fill:#2D65A4;}
	.st37{fill:#88A2D5;}
	.st38{fill:#235789;}
	.st39{fill:#0A293D;}
	.st40{fill:#2C6BAE;}
	.st41{fill:#143C59;}
	.st42{fill:#0A2A3E;}
	.st43{fill:#082739;}
	.st44{fill:#052333;}
	.st45{fill:#2D67A6;}
	.st46{fill:#1B496F;}
	.st47{fill:#9DB2DE;}
	.st48{fill:#A4B7E2;}
	.st49{fill:#95ACDB;}
	.st50{fill:#2C64A1;}
	.st51{fill:#194669;}
	.st52{fill:#2C6DB1;}
	.st53{fill:#2D66A6;}
	.st54{fill:#AFC0E6;}
	.st55{fill:#06212E;}
	.st56{fill:#2D6AAC;}
	.st57{fill:#ADBEE5;}
	.st58{fill:#4D7EBD;}
	.st59{fill:#5985C2;}
	.st60{fill:#2D6CAF;}
	.st61{fill:#3371B4;}
	.st62{fill:#2B639F;}
	.st63{fill:#819ED2;}
	.st64{fill:#7294CC;}
	.st65{fill:#153C5A;}
	.st66{fill:#B8C6EA;}
	.st67{fill:#C0CDED;}
	.st68{fill:#3B75B7;}
	.st69{fill:#B2C2E7;}
	.st70{fill:#6089C5;}
	.st71{fill:#A5B8E2;}
	.st72{fill:#8BA5D6;}
	.st73{fill:#CCD6F1;}
	.st74{fill:#93ABDA;}
	.st75{fill:#2D65A3;}
	.st76{fill:#2D66A5;}
	.st77{fill:#A3B6E1;}
	.st78{fill:#8FA8D8;}
	.st79{fill:#11364F;}
	.st80{fill:#B9C7EA;}
	.st81{fill:#3572B5;}
	.st82{fill:#477BBB;}
	.st83{fill:#97ADDB;}
	.st84{fill:#4078B9;}
	.st85{fill:#C9D3F0;}
	.st86{fill:#7C9BD0;}
	.st87{fill:#9BB0DD;}
	.st88{fill:#DAE1F5;}
	.st89{fill:#2B629D;}
	.st90{fill:#7395CC;}
	.st91{fill:#C2CEED;}
	.st92{fill:#688EC8;}
	.st93{fill:#86A1D4;}
	.st94{fill:#3472B5;}
	.st95{fill:#E5E9F8;}
	.st96{fill:#B4C3E8;}
	.st97{fill:#8EA7D8;}
	.st98{fill:#CFD8F2;}
	.st99{fill:#9EB3DF;}
	.st100{fill:#F0F2FB;}
	.st101{fill:#5C87C3;}
	.st102{fill:#4E7FBE;}
	.st103{fill:#3D76B8;}
	.st104{fill:#D6DEF4;}
	.st105{fill:#487CBB;}
	.st106{fill:#3C76B8;}
	.st107{fill:#DDE4F6;}
	.st108{fill:#123A5D;}
	.st109{fill:#668CC7;}
	.st110{fill:#163F5E;}
	.st111{fill:#2A6AB1;}
	.st112{fill:#255F9F;}
	.st113{fill:#255E9E;}
	.st114{fill:#10171F;}
	.st115{fill:#2564AA;}
	.st116{fill:#1A4672;}
	.st117{fill:#29619E;}
	.st118{fill:#275F9C;}
	.st119{fill:#0D131A;}
	.st120{fill:#132D48;}
	.st121{fill:#104D8D;}
	.st122{fill:#1F5286;}
	.st123{fill:#080C15;}
	.st124{fill:#11233A;}
	.st125{fill:#1F548B;}
	.st126{fill:#2867AC;}
	.st127{fill:#143150;}
	.st128{fill:#0D529C;}
	.st129{fill:#235D9C;}
	.st130{fill:#173B5F;}
	.st131{fill:#0C141B;}
	.st132{fill:#225A94;}
	.st133{fill:#15273F;}
	.st134{fill:#173D64;}
	.st135{fill:#080E16;}
	.st136{fill:#071C36;}
	.st137{fill:#386EB6;}
	.st138{fill:#245FA0;}
	.st139{fill:#134271;}
	.st140{fill:#3471B5;}
	.st141{fill:#194675;}
	.st142{fill:#050A12;}
	.st143{fill:#034282;}
	.st144{fill:#0B1018;}
	.st145{fill:#1759A2;}
	.st146{fill:#0A1017;}
	.st147{fill:#09203C;}
	.st148{fill:#124D8B;}
	.st149{fill:#132B47;}
	.st150{fill:#1D599D;}
	.st151{fill:#2666AF;}
	.st152{fill:#070C14;}
	.st153{fill:#133353;}
	.st154{fill:#0F161D;}
	.st155{fill:#1B5698;}
	.st156{fill:#000106;}
	.st157{fill:#131824;}
	.st158{fill:#0F3C6A;}
	.st159{fill:#185391;}
	.st160{fill:#184365;}
	.st161{fill:#2767B0;}
	.st162{fill:#5181BF;}
	.st163{fill:#2A6BB1;}
	.st164{fill:#1D4C75;}
	.st165{fill:#0F181F;}
	.st166{fill:#2662A5;}
	.st167{fill:#145195;}
	.st168{fill:#0E1627;}
	.st169{fill:#094789;}
	.st170{fill:#1F4F7E;}
	.st171{fill:#040911;}
	.st172{fill:#0A4D97;}
	.st173{fill:#071523;}
	.st174{fill:#041B39;}
	.st175{fill:#0C1118;}
	.st176{fill:#235994;}
	.st177{fill:#1D4D7D;}
	.st178{fill:#081E3C;}
	.st179{fill:#090D15;}
	.st180{fill:#235FA2;}
	.st181{fill:#073F77;}
	.st182{fill:#205B9D;}
	.st183{fill:#00041D;}
	.st184{fill:#03070E;}
	.st185{fill:#01060D;}
	.st186{fill:#1257A1;}
	.st187{fill:#10161D;}
	.st188{fill:#0F2540;}
	.st189{fill:#11181E;}
	.st190{fill:#BBC8EB;}
	.st191{fill:#0F1D33;}
	.st192{fill:#2867B0;}
	.st193{fill:#3C76B7;}
	.st194{fill:#101721;}
	.st195{fill:#0E1A2E;}
	.st196{fill:#245A94;}
	.st197{fill:#040B12;}
	.st198{fill:#4B7DBC;}
	.st199{fill:#1F4974;}
	.st200{fill:#11171E;}
	.st201{fill:#0B4B8D;}
	.st202{fill:#000209;}
	.st203{fill:#000108;}
	.st204{fill:#050910;}
	.st205{fill:#0C4C93;}
	.st206{fill:#0C447E;}
	.st207{fill:#012D58;}
	.st208{fill:#083C71;}
	.st209{fill:#0D2C4E;}
	.st210{fill:#081527;}
	.st211{fill:#000613;}
	.st212{fill:#5A86C2;}
	.st213{fill:#0D519D;}
	.st214{fill:#0D4E95;}
	.st215{fill:#0D4683;}
	.st216{fill:#00030F;}
	.st217{fill:#194568;}
	.st218{fill:#1C446D;}
	.st219{fill:#000005;}
	.st220{fill:#1A466B;}
	.st221{fill:#7898CE;}
	.st222{fill:#7A99CF;}
	.st223{fill:#5885C1;}
	.st224{fill:#5382C0;}
	.st225{fill:#174161;}
	.st226{fill:#184466;}
	.st227{fill:#5784C1;}
</style>
<path class="st0" d="M297.4,590.6c-96.7,0-193.4,0-290.1,0c-2.2,0-2.6-0.5-2.6-2.6c0.1-193.6,0.1-387.2,0-580.7
	c0-2.2,0.5-2.6,2.6-2.6c193.6,0.1,387.2,0.1,580.7,0c2.2,0,2.6,0.5,2.6,2.6c-0.1,193.6-0.1,387.2,0,580.7c0,2.2-0.5,2.6-2.6,2.6
	C491.1,590.6,394.2,590.6,297.4,590.6L297.4,590.6z"/>
<path class="st1" d="M346,430c0.1,1.3-0.3,2.5-1.3,3.4c-1.8,1.4-3.5,2.7-5.8,3c-0.9,0-1.9,0-2.8,0c-1.9-0.1-3.6-1.1-5.5-1
	c-7.7-3-14.9-7.1-22.1-11.1c-10.2-5.6-20.5-11.3-29.8-18.5c-2.4-1.9-3.8-4.5-5.9-6.6c-0.7-1.1-1.4-2.2-2.7-2.7
	c-5.5-6-8.5-13.3-9.9-21.2c-1-5.5-2.5-10.9-2.9-16.5c0.6-0.9,0.1-1.9,0.4-3.3c-0.3,1,0.1,1.7-0.6,2.1c-1.1-4.4-1.5-8.9-1.8-13.5
	c-0.1-2.3,0.4-4.6,2.5-6.2c1.6,1.5,3.4,2.3,5.6,2.6c5.8,0.7,11.5,2,17.3,1.9c0.7,0,1.4,0.1,1.9-0.4c1.6,0.3,3,0.9,4.3,1.8
	c0.4,1.2,1.5,0.8,2.4,0.9c9.4,3.5,18.8,7,28.1,10.6c3.3,1.3,6.5,2.8,8.8,5.7c2.3,2.1,4.2,4.5,6.7,6.4c4.2,4.6,6.7,10.1,7.3,16.2
	c1.3,13.8,3.1,27.6,5.5,41.3c0.1,0.5,0,1.1,0,1.7C345.6,427.8,345.6,428.9,346,430L346,430z"/>
<path class="st1" d="M318.5,483.8c-5.6-3-10.6-6.8-15.6-10.9c-14.2-11.5-19.4-28.2-26.1-44c-0.8-1.8-1.3-3.8-2-5.6
	c0.3-1.6-0.2-3.1,0-4.7c0.1-0.8,0.6-1.1,1.3-1.2c1.1,0.3,2.2,0.5,3.3-0.1c1.1,0,2.2,0,2.7,1.2c1.8,0.8,3.4,1.8,5.3,2.2
	c5.4,3.3,10.8,6.7,16.2,10c0.7,0.8,1.4,1.6,2.6,1.5c6.1,3.3,12.1,6.7,18.2,10c2.6,2.2,5.7,3.5,8.9,4.6c4.3,2.3,8.5,4.7,11.2,9
	c1.3,2.1,3.8,3.3,5.6,5c2.9,2.8,5.1,6.3,6.3,10.1c2.7,8.7,5.5,17.3,8.9,25.7c0.1,2.3,2,4.5,0.3,6.8c-3.7,1.3-7.2,0.2-10.5-1.3
	c-0.5-1.1-1.6-0.8-2.5-0.9c-10.9-4.6-21.5-9.9-31.7-16C320.4,484.5,319.8,483.6,318.5,483.8L318.5,483.8z"/>
<path class="st1" d="M274.8,453.6c-3.4-1-6.1-3.2-8.8-5.3c-6.9-5.4-13.7-11-20.3-16.9c-0.5-1.6-1.8-2.2-3.2-2.7
	c-1,0-0.5-1.4-1.4-1.5c-1.1-1.2-1.9-2.7-3.7-3.1c-0.8-0.8-1.6-1.5-2.4-2.3c-1.5-1.5-2.6-3.6-4.8-4.2c-3.1-3.1-6.2-6.3-9.4-9.4
	c-0.4-1.4-1.3-2.4-2.6-3c-0.8-0.5-1.4-1.2-1.8-2.1c0-1.5-1.3-1.9-2.2-2.6c-8.9-9.5-12.5-21.4-15.4-33.6c-0.5-2.3-1.1-4.6-1.4-6.9
	c-0.4-3.5,1.4-4.9,4.6-3.5c2,0.8,4,1.9,5.4,3.4c2.5,2.6,5.9,4.2,8.1,7.2c0.9,1.1,1.8,2.3,3,3.1c5.6,3,9.7,7.9,14.9,11.3
	c6.6,4.4,11.2,10.7,17,15.8c0.9,1.2,2,2.3,3.2,3.2c4.8,5,8.5,10.8,11,17.2c1.1,2.8,2.1,5.6,3.2,8.4c0.1,1.4,0.4,2.8,1.5,3.8
	c3.1,7,6.7,13.8,9.3,21.1C278.8,453.8,276.7,453.6,274.8,453.6L274.8,453.6z"/>
<path class="st1" d="M243.2,332.5c2.8,5.3,2.7,11.1,3.3,16.8c-0.5,1-0.1,2.1-0.2,2.7c-0.1-0.2-0.1-0.6,0.4-1
	c1.7,8.5,3.4,16.9,5,25.4c0.3,1.6,0.3,3.3-1,4.6c-2.4,1.5-4.6,0.6-6.9-0.3c-1.1-0.4-1.9-1.5-3.3-1.4c-4.5-3-8.7-6.5-12.8-10
	c-0.4-0.8-0.9-1.6-2-1.5c-6.1-4.6-12-9.5-17.5-14.8c-1.7-1.9-3.3-3.8-5.4-5.2c-5.4-6.5-9.4-13.4-8.7-22.3c0.3-4.9,0.2-9.8,0.9-14.7
	c0.4-0.4,0.9-0.3,1.4-0.1c2.8,2.9,6.5,4.7,9.9,6.9c9.8,6.6,20.5,11.5,31.5,15.6C239.9,334.2,241.6,334.6,243.2,332.5L243.2,332.5z"
	/>
<path class="st2" d="M344.1,165.1c1.8-0.5,3.5-0.8,5.4-0.7c0.5,0.4,1,0.3,1.6,0.2c5-0.6,6,0.3,6.7,5.4c1.2,10,1.3,19.8-1.7,29.6
	c-2.5,8.2-6.1,15.8-11.5,22.5c-6.8,8.5-15.2,14.7-24.8,19.5c-3.6,0-7.1-0.6-10.6-0.9c-0.7-0.1-1.4-0.3-2-0.8
	c0.1-1.9,1.8-1.8,2.9-2.2c8.3-2.8,15.7-7,22.2-12.9c8.1-7.3,13.7-16.1,17-26.5c2.9-9.3,3.2-18.7,1.3-28.2c-0.3-1.6-0.5-3.5-2.9-3.4
	c-0.5,0-1,0-1.6-0.1C345.1,166.3,344,166.4,344.1,165.1L344.1,165.1z"/>
<path class="st3" d="M319.9,241c3.6-3.2,8.1-4.9,11.9-7.9c9.5-7.3,16.5-16.4,21.1-27.5c3.8-9.3,5.1-18.9,4.6-28.8
	c-0.2-3-0.8-5.9-1.1-8.9c-0.2-2.5-1.5-3.2-3.8-3c-1.1,0.1-2.3,0.4-3.1-0.6c0.3,0,0.7,0,1-0.1c1.2-0.6,2.5,0.1,3.7-0.5
	c0.2,0,0.5,0,0.7,0c2.2,0.8,4.6-0.8,6.8,0.6c1.6,2.9,1.6,6.2,1.9,9.4c0.5,4.7,0.6,9.5,0.1,14.3c0.1,2.9-1.4,5.3-2.2,8
	c-1.7,5.6-3.4,11.2-5.1,16.8c-0.3,1-0.1,2.3-1.5,2.8c-0.6,0.4-0.4,1.2-0.7,1.7c-5.8,9.9-14.2,17.5-23.3,24.3c-1.1,0.8-2.2,1-3.5,0.9
	c-1.9,0.2-3.8-0.3-5.7-0.4C321,241.9,320.3,241.7,319.9,241L319.9,241z"/>
<path class="st4" d="M261.2,267.9c-0.3-0.9,0.6-1.3,0.9-2c1.3-0.9,2.6-0.3,3.8,0.1c16.9,5.5,33.9,4.9,50.9,0.8
	c4.6-1.1,8.7-3.4,13.2-4.9c1.4-0.4,1.7-2.4,3.5-2.2c1.4,1.8,3.8,2.9,4.5,5.3c0.8,2.2-1.1,2.4-2.3,3c-9.5,4.7-19.5,7.9-29.9,9.3
	c-13.4,1.8-26.7,1-39.7-2.8c-1.7-0.5-3.5-0.8-4.9-2.1C260.3,270.9,261.5,269.4,261.2,267.9L261.2,267.9z"/>
<path class="st5" d="M333.6,259.8c-0.8,3-3.6,3-5.9,4c-5.8,2.6-11.8,4.7-18.1,5.7c-5.8,0.9-11.6,1.2-17.5,1.3
	c-7.2,0.2-14.1-0.4-21-2.2c-3-0.8-5.9-1.8-8.9-2.7c-0.3-1-0.3-2,0.5-2.9c0.8-0.4,1-1,0.8-1.8c0.1-0.3,0.3-0.5,0.4-0.8
	c0.3-0.2,0.6-0.3,1-0.4c2.6-0.3,4.7,1.1,7.1,1.6c12.9,2.7,25.9,3.6,38.8,0.6c4.9-1.2,10.1-2.1,14.5-4.9c0.4-0.4,0.9-0.5,1.4-0.8
	C329.2,256.9,331.6,258,333.6,259.8L333.6,259.8z"/>
<path class="st6" d="M261.3,272c9.5,3.6,19.4,5.1,29.5,5.3c12.7,0.2,25.1-1.8,36.9-6.8c3-1.2,5.9-2.6,8.9-3.8
	c0.8-0.3,1.4-0.7,1.4-1.6c1.9,1.1,2,3.1,2.5,4.9c-4.6,3.8-10.2,5.6-15.7,7.4c-8.9,3-18.2,4.8-27.6,5.3c-5.6,0.3-11.2,0.1-16.7-0.6
	c-6.8-0.9-13.8-1.9-20.2-4.8c-0.3-0.2-0.5-0.4-0.7-0.7c0.4-1.1,0-2.2,0.2-3.4c0-1,0-1.9,0.6-2.7C261.2,270.8,260.8,271.6,261.3,272
	L261.3,272z"/>
<path class="st7" d="M259.9,315.2c-1.2-1.4-2.3-2.9-2.7-4.8c-0.3-0.5-0.3-1,0-1.6c2.6-0.1,5.2,0.2,7.6,0.8
	c19.7,4.6,39.3,3.7,58.9-0.6c3.8-0.8,7.5-2.2,11.2-3.4c1.3-0.4,2.5-1.1,3.8-0.1c0.7,1.8,0,3.4-0.6,4.9c-3.3,2.1-7,2.9-10.7,3.8
	c-14.7,3.6-29.6,5.5-44.9,4.1c-6.8-0.6-13.5-1.6-20.3-2.3C261.5,315.9,260.8,315.3,259.9,315.2L259.9,315.2z"/>
<path class="st8" d="M260,276.7c6.1,1.6,12.2,3.3,18.5,4.1c10,1.3,20.1,1.4,30.1-0.2c8-1.3,15.7-3.8,23.3-6.6c3-1.1,5.3-3.8,8.7-4
	c0.3,0.4,0.5,0.9,0.8,1.3c0.5,2.8-1.1,4.3-3.4,5.4c-10.9,5.1-22.3,8.4-34.4,9.7c-11.6,1.3-23,0.2-34.3-2.1c-3.4-0.7-6.7-1.7-9.9-3.2
	c-0.4-0.4-0.6-0.9-0.5-1.5C259.5,278.7,259.1,277.5,260,276.7L260,276.7z"/>
<path class="st9" d="M256.7,290.2c0.3-2.7,0.3-5.5,1.3-8.1c0.7-0.1,1,0.3,1.2,0.9c0.2,0.7,0.3,1.5,0.2,2.2c-0.8,3,1.4,3.6,3.5,4.2
	c14.6,4,29.3,5,44.3,3c10.4-1.4,20.4-3.9,30-8.2c1-0.5,2.1-0.9,3.2-0.4c1.6,1.4,0.2,2.8,0.1,4.2c-0.2,0.4-0.4,0.7-0.7,0.9
	c-4.3,2.7-9.1,4.2-14,5.6c-21.1,6-42.3,6.4-63.6,0.7c-1.7-0.5-3.5-0.8-4.9-2C256.5,292.4,257.4,291.1,256.7,290.2L256.7,290.2z"/>
<path class="st10" d="M268.8,323.7c-1.1-0.4-2-1-2.7-2c-0.4-0.5-0.5-1-0.2-1.5c1.1-1.4,2.5-1.2,4-0.9c22,3.3,43.7,1.9,65-4.7
	c1.1-0.3,2.3-1.1,3.5,0c0.6,1.7,0.4,3.4-0.2,5.1c-0.9,1.1-2.3,1.4-3.6,1.8c-15.7,4.3-31.6,6.6-47.8,5.9c-2.9-0.1-5.8-0.9-8.7-0.3
	c-1.3,0.1-2.4-0.6-3.5-1C272.6,325.6,270.9,324,268.8,323.7L268.8,323.7z"/>
<path class="st11" d="M208.8,257.8c0.4-1.7,0.9-3.3,2.1-4.7c0.4-0.5,0.8-1,1.5-1.2c1.3-0.1,2,0.7,2.8,1.5
	c8.1,8.5,17.3,15.7,27.7,21.3c3.7,2,3.8,2,5.6-1.6c0.3-0.1,0.6-0.1,0.9,0.1c-0.2,2.8-0.6,5.6-1.4,8.3c-1,0-1,1-1,1.5
	c0.1,2.7-0.9,2.7-3,1.7c-11.4-5.3-21.7-12.3-30.7-21.1c-1-1-1.8-2.3-3.2-2.9C208.6,260.3,208.8,259,208.8,257.8L208.8,257.8z"/>
<path class="st12" d="M258.7,284.8c0-0.7,0-1.3,0-2c0.4-0.6-0.1-1.6,0.7-2c5.3,1,10.4,3,15.9,3.7c7.6,0.9,15.1,2.2,22.8,1.5
	c6.2-0.5,12.4-1,18.4-2.6c7.9-2.1,15.8-4.4,23-8.5c1.7-0.9,1-2.6,2-3.6c0.6,0.6,0.6,1.3,0.6,2.1c-0.8,1.8,0.8,3.8-0.4,5.5
	c-11.9,6.1-24.4,9.9-37.7,11.2c-5.3,0.5-10.5,0.3-15.7,0.3c-9.4,0-18.4-1.9-27.4-4.5C259.9,285.7,259.3,285.3,258.7,284.8
	L258.7,284.8z"/>
<path class="st13" d="M338,314.4c-11,4.1-22.4,5.8-34,7c-5.2,0.5-10.3,0.4-15.5,0.8c-3.3,0.3-6.7-1.1-10.1-1.1
	c-3.3,0-6.6-0.1-9.8-1.2c-0.9-0.3-1.7,0.2-2.6,0.6c-2.3,0-2.8-2.7-4.7-3.3c-1-0.3-1-1.2-1.4-1.9c6.2-0.8,12.1,1.4,18.1,2
	c20.6,2,40.4-0.6,60-6.9c0.3,0.4,0.8,0.5,1.3,0.7c0,2.8,0.1,5.5-0.5,8.3C337.6,317.8,339.1,315.8,338,314.4L338,314.4z"/>
<path class="st14" d="M243.2,332.5c-0.5,3.5-0.7,3.5-4.3,2.2c-13.9-5-27-11.5-39-20.2c-1.4-1-4-0.9-3.8-3.6
	c-1.4-1.4,0.3-3.2-0.6-4.7c0-0.4,0-0.9,0.1-1.4c0.7-0.6,1.2-0.2,1.8,0.2c11.9,9.6,25.3,16.6,39.5,22.2c1.6,0.6,2.8,1.8,4.4,2.5
	c0.9,0.4,1.1,1.5,1.9,2c0.1,0.1,0.1,0.3,0.2,0.4C243.3,332.4,243.2,332.5,243.2,332.5L243.2,332.5z"/>
<path class="st15" d="M208.8,257.8c2.7,2.8,5.2,5.7,8.1,8.2c7.3,6.6,15.5,11.9,24.1,16.6c1.7,0.9,3.6,1.1,5.2,2.6
	c0.5-1.9,0.8-3.6,1.5-6.1c0.2,1.5,0.3,2,0.4,2.6c-1.2,2.5-0.1,5.4-1.4,8c-0.6-0.6-0.4-1.2-0.1-2.1c-0.5,0.9-0.1,1.8-0.4,2.6
	c-0.2,0.4-0.5,0.8-0.9,1.1c-0.9,0.3-1.8,0-2.6-0.4c-6.7-3.5-13.5-7.1-19.6-11.5c-5.7-4.2-11.3-8.7-16.4-13.8
	c-0.8-1.8,1.4-3.1,0.9-4.9C207.7,259.5,208,258.6,208.8,257.8L208.8,257.8z"/>
<path class="st16" d="M248.6,273.3c-0.3,1.4-0.6,2.8-0.9,4.4c-8.2-2.9-15-7.9-21.5-13.1c-4.3-3.4-8.6-7-12.1-11.3
	c-0.4-0.6-1.1-0.8-1.8-0.8c-0.5-2.5,1.8-4,1.9-6.3c0-0.5,0-1,0.6-1.2c1.8,0.5,2.4,2.3,3.6,3.5c8.4,8.7,17.7,16,28.5,21.5
	c0.9,0.4,1.8,1,2.4,1.8C249.7,272.6,249.1,272.9,248.6,273.3L248.6,273.3z"/>
<path class="st17" d="M325.9,257.2c0,1.2-0.7,1.9-1.8,2.2c-7.2,2-14.3,4.5-21.9,5.3c-8.4,0.9-16.6-0.3-24.8-0.9
	c-3.2-0.2-6.3-1.3-9.3-2.4c-1.1-0.4-2.3-0.5-3.4-0.9c-0.1-1.6,1.4-2.2,2-3.4c0.2-0.2,0.4-0.4,0.7-0.7c2.3-0.3,4.4,0.6,6.6,1.1
	c14.3,3.3,28.4,3.3,42.4-1.6c0.4-0.1,0.8-0.1,1.1-0.1C320.3,256.1,323.2,256.2,325.9,257.2L325.9,257.2z"/>
<path class="st18" d="M329.3,167.1c1.6-0.2,3.1-0.5,4.7-0.7c0.9,0.6,2.1,0,3,0.6c1.8,2.3,2.1,5.2,2.4,7.9
	c1.2,10.1-0.2,19.9-5.4,28.8c-8.1,14-20.1,22.5-36.4,24.2c-6.6,0.7-13.1,0.5-19.4-2c-0.4-0.4-0.4-1-0.4-1.5c0.3-0.7,0.5-1.4,1.1-1.8
	c0.9-0.4,1.7-0.2,2.6,0.1c6.9,2.1,14,2,20.9,0.4c21.1-5,36-25.2,32.8-47.2c-0.3-1.8-0.3-3.6-1.1-5.2c-0.5-1.1-1-2-2.4-1.9
	C330.9,168.4,329.5,168.7,329.3,167.1L329.3,167.1z"/>
<path class="st19" d="M332,167.7c3.8-0.2,3.5,3.2,4,5.3c1.5,7.9,0.9,15.7-1.9,23.3c-1.6,4.4-3.8,8.6-6.9,12.1
	c-4.9,5.3-10.1,10-17.1,13c-8.6,3.7-17.1,4-26.1,2.9c-1.8-0.2-3.2-1.6-5.1-1.4c-0.5-0.3-0.2-0.9-0.6-1.3l1.3-2.7
	c12.6,6.8,31,1.4,40.7-8.1c11.4-11.1,14.9-24.2,11.6-39.5C331.7,170.1,331.1,168.9,332,167.7L332,167.7z"/>
<path class="st20" d="M279.4,234.4c-0.6-0.2-0.7-0.6-0.7-1.2c0.3-2.4,2.1-1.5,3.3-1.3c4.4,0.5,8.9,1.1,13.3,0.8
	c3.8-0.3,7.6-0.5,11.2-1.7c0.3-0.2,0.6-0.3,0.9-0.5c1.3-0.5,2.7-0.8,4-1.3c0.3-0.1,0.6-0.2,0.9-0.3c1.9-0.5,3.7-1.2,5.1-2.6
	c0.4-0.3,0.8-0.5,1.2-0.7c2.8-0.9,5-2.4,6.6-4.9c7-5.3,11.9-12.4,15-20.5c3.8-9.6,4.8-19.6,2.7-29.9c-0.3-1.4-1.2-3,0.3-4.3
	c3.1-0.2,3.3,2.3,3.7,4.2c1.3,7.4,1.5,14.8,0,22.2c-0.2,1-0.4,2-0.5,3c0,0.4-0.1,0.7-0.2,1c-2.4,4.8-4,9.9-6.9,14.4
	c-5.9,9.1-14.2,15.6-23.7,20.6c-0.7,0.4-1.4,0.7-2,1.1c-0.3,0.2-0.6,0.3-0.9,0.4c-8.4,2.6-16.9,4.3-25.7,2.9c-1.2-0.2-2.5-0.1-3.7,0
	C281.5,236.4,280.8,234.7,279.4,234.4L279.4,234.4z"/>
<path class="st21" d="M277.5,326.5c7-0.9,14,0.5,20.9,0c10.2-0.7,20.3-1.7,30.2-4.6c3.1-0.9,6.3-1.4,9.4-2.2
	c0.8,1.5,0.1,2.9-0.5,4.3c-4.2,2.2-8.9,2.9-13.4,3.9c-10.1,2.4-20.3,3.1-30.6,3.4c-1.8,0.1-3.5,0.3-5.3,0.6h0c-1.2-1-2.4-1.7-4-1.5
	c-1.1-0.2-2.1-0.5-2.9-1.2C280.5,327.7,277.8,328.7,277.5,326.5L277.5,326.5z"/>
<path class="st22" d="M384.5,135.6c0.1,1-0.3,1.7-1.3,1.9c-4.7-9.5-10.6-18.1-17.8-25.8c-1.3-1.4-3.3-1.1-4.4-2.5
	c2-2.1,4.3-3.8,6.7-5.4c0.7-0.3,1.2,0.1,1.7,0.5c7.2,7.2,12.8,15.6,18.1,24.3c0.1,0.5,0,1-0.2,1.4
	C386.4,131.9,385.6,133.8,384.5,135.6L384.5,135.6z"/>
<path class="st23" d="M202.7,274.6c0.4-2.9,1-5.7,2.8-8c0.3-0.2,0.6-0.2,0.8,0.1c0.2,1.9,1.1,3.2,2.5,4.5
	c8.1,7.6,17.2,13.8,27.1,18.9c3.1,1.6,6.1,3.1,9.3,4.6c-0.3,1.5-0.1,3.2-0.9,4.6c-0.2,0.3-0.4,0.5-0.8,0.6c-6.3-1.5-11.7-4.9-17-8.3
	c-6.8-4.2-13.7-8.4-19.3-14.3c-1-1.1-2.3-1.8-3.8-2.1C203.2,275.1,202.9,274.9,202.7,274.6L202.7,274.6z"/>
<path class="st24" d="M373.1,147.6c-1.3,1.4-3.1,1.9-4.8,2.5c-2.2-3.6-3.7-7.6-5.8-11.2c-3-5.2-7.1-9.4-10.9-13.9
	c-0.8-0.9-1.8-1.7-1.9-3c0.3-1.5,2.2-2.1,2.3-3.7c0.2-0.1,0.4-0.2,0.7-0.3c2.4-0.9,3.8,1,5.1,2.4c6.1,6.9,11.5,14.2,15.4,22.7
	C374,144.6,374.1,146.1,373.1,147.6L373.1,147.6z"/>
<path class="st25" d="M337.4,323.8c0.2-1.4,0.4-2.7,0.6-4c0-1.8,0-3.6,0-5.4c0-0.1,0-0.2,0.1-0.3c0.1-0.1,0.3-0.2,0.4-0.3
	c0.1,1.8,0.2,3.7,0.3,5.5c0.4,4-0.1,8.1-1.1,11.7c-2.5,9.5-10,13.6-19.6,11.5c-3.9-0.8-7.7-2.1-11.3-3.8c0.4-2.4,2.1-3.2,4.3-3.3
	c7.7-0.4,15.2-2.1,22.7-4c2.4-0.6,2.6-2.5,2.6-4.5C336.4,325.8,336.5,324.7,337.4,323.8L337.4,323.8z"/>
<path class="st26" d="M332,167.7c3.8,12.2,2.8,24.1-3.7,35.2c-3,5.1-7.4,9.2-12.3,12.6c-7.5,5.3-16,7.7-25,7.2
	c-4-0.2-8.6,0.4-11.4-3.9c0.4-0.9,0.9-1.8,1.3-2.7c0.9-0.1,1,0.6,1.4,1.2c0.8,1.3,2.1,1.7,3.4,1.8c16.4,2.1,29.9-3,39.2-17
	c6.2-9.3,7.5-19.7,5.1-30.6c-0.3-1.3-0.8-2.4-2.4-2.3c-1-0.2-2.3,0-2.4-1.6c1.4-0.3,2.8,0.2,4.1-0.6C330,168,331.1,167.6,332,167.7
	L332,167.7z"/>
<path class="st27" d="M281.5,217.5c0-0.5-0.1-1-0.6-1.3c0.5-0.9,0.9-1.8,1.4-2.7c15.7,5.6,34.2-2,41.1-17.4c3.3-7.3,5-15.1,2.4-23.2
	c-0.4-1.2-0.4-2.8-2.2-3c-0.8-0.3-1.9-0.3-1.8-1.6c1.1-0.6,2.2-0.8,3.4-0.6c0.7,1,1.8,0.6,2.7,0.7c2.4,2.2,2.4,5.3,2.7,8.1
	c1.4,13.2-2.8,24.3-12.6,33.3c-6.4,5.9-14,8.9-22.4,9.5C290.9,219.6,286,219.9,281.5,217.5L281.5,217.5z"/>
<path class="st28" d="M350.1,122c4.6,5.6,9.9,10.5,13.3,17c1.9,3.6,4.4,6.9,4.9,11.2c-0.4,0-0.8,0.1-1.2,0.1
	c-1.3,0.4-2.6,0.8-3.9,0.9c-1-0.3-1.3-1.1-1.7-1.9c-3.5-7.3-8.2-13.9-13.5-20c-0.9-1-1.9-1.9-2.1-3.4c0-0.3,0.1-0.7,0.2-1l1.4-1
	C348.3,123.2,348.5,121.7,350.1,122L350.1,122z"/>
<path class="st29" d="M316.5,256.5c-3.1,2.2-6.8,2.7-10.3,3.2c-13,2.1-25.8,1.3-38.3-2.8c-0.2-0.1-0.3-0.3-0.5-0.5
	c1.9-3,4.5-4.9,8.2-4.9c0.7,1.1-1.1,1.3-0.8,2.4c10.5,2,21,3.6,31.6,0.4c0.4-0.1,0.7,0,1,0.1c3,0,5.8,1.4,8.8,1.3
	C316.6,255.7,316.6,256.2,316.5,256.5L316.5,256.5z"/>
<path class="st30" d="M202.7,274.6c0.3,0,0.5,0,0.8,0c0.8,0.9,0.3,1.9,0.2,2.8c-0.6,2.8,1.2,4.5,3.1,6.2
	c8.6,7.8,18.7,13.3,28.9,18.6c1.3,0.7,2.7,1.2,3.4,2.6c1-1,1.8-2.3,3.6-1.2c-1.9,3.1-4.8,3.8-8.2,3.3c-2.7-1.1-5.4-2.3-7.9-3.7
	c-1.5-1-3-2.1-4.8-2.4c-2.2-1.3-4.5-2.7-6.7-4c-0.8-1.2-1.9-1.9-3.3-2.1c-1.7-0.9-3.4-1.9-4.7-3.2c-0.6-1.2-1.5-2.1-2.7-2.6
	c-1.2-1.3-1.9-2.8-2-4.6c-0.4-2.6-0.4-5.2,0-7.8C202.1,275.8,201.8,275,202.7,274.6L202.7,274.6z"/>
<path class="st31" d="M249.2,272c-11.5-5.4-21.6-12.8-30.4-22c-1.5-1.5-3.3-2.8-4-4.9c0.8-1.5,2-2.6,3.4-3.4c2.6,2.2,4.4,5,6.7,7.4
	c7.6,7.8,16.4,13.8,26.2,18.2c0.1,0.4-0.2,0.6-0.6,0.7C249.9,269.2,250,270.8,249.2,272L249.2,272z"/>
<path class="st32" d="M387.1,128.7c-2.8-4-5.8-8-8.5-12.2c-2.1-3.3-4.7-6.2-7.5-8.9c-0.9-0.9-2.2-1.6-2.2-3.2
	c-0.4-1.3,1-1.7,1.4-2.6c0.5-0.7,1.2-1.1,2-1.4c0.7,0,1.3,0.1,1.8,0.5c5.7,5.9,10.6,12.6,15.6,19.2c1.3,1.7,0.5,3.1,0.3,4.7l0.1-0.1
	C388.7,125.7,389.3,128.3,387.1,128.7L387.1,128.7z"/>
<path class="st33" d="M251.3,267.3c-4.5,0.5-7.3-2.9-10.7-4.8c-7.1-4-13.1-9.5-18.6-15.5c-1.5-1.6-3.1-3.2-3.7-5.4
	c0.9-1.6,1.9-3,4.1-1.9c7.7,9.5,17.1,16.8,27.8,22.5c0.6,0.3,1.3,0.5,1.7,1C252.2,264.7,252.1,266,251.3,267.3L251.3,267.3z"/>
<path class="st6" d="M361,109.2c4.6-0.9,6.1,3.2,8.2,5.6c5.5,6.1,9.9,13,13.9,20.2c0.5,1-0.1,1.7,0.2,2.6v-0.1
	c-0.8,0.9-1.8,1.7-2.1,3c-0.2,0.1-0.5,0.3-0.7,0.4c-2.7-1.6-3-4.6-4.5-7c-4.1-6.9-9-13.1-14.3-19.1c-1.1-1.2-2.5-2.4-1.5-4.4
	C360.4,110,360.7,109.6,361,109.2L361,109.2z"/>
<path class="st34" d="M337.3,327.1c0.5,3.5-1.1,5.1-4.6,5.5c-2.8,0.3-5.6,1.8-8.4,2c-4.5,0.2-8.9,2.4-13.5,1.6c-2-0.4-2.7,1.6-4,2.6
	c-0.9,0-1.7-0.2-2.4-0.8c-1.2-1-2.5-1.5-4-1.4c-1.2-0.2-2.4-0.6-3.4-1.3c-0.6-0.7-1.2-1.5,0.1-2.2c3.6-1.4,7.5-1,11.2-1.4
	c8.3-0.8,16.4-2.2,24.3-4.5C334.2,326.7,335.8,325.9,337.3,327.1L337.3,327.1z"/>
<path class="st35" d="M251.8,263.2c-1.6,0.3-2.7-0.6-4-1.3c-9.4-5.1-17.4-11.9-24.7-19.7c-0.7-0.7-1.6-1.3-0.8-2.5
	c2.6-1.4,5-0.4,7.4,0.7c2.1,4.3,6.1,6.8,9.5,9.7c4,3.4,8.6,6,13.2,8.5c0.4,0.3,0.5,0.8,0.8,1.2C253.6,261.3,252.8,262.3,251.8,263.2
	L251.8,263.2z"/>
<path class="st36" d="M327.9,241.7c2.6,0.3,3.7-2,5.3-3.2c7.5-5.6,14.2-12.1,19.2-20.2c0.4-0.6,1.1-1.1,1.7-1.6
	c0.7,1.9-0.8,3.7-0.6,5.5c-0.7,4.7-2.9,8.5-6.2,11.9c-3.7,3.7-7.3,7.2-12.7,8.1c-1.5-0.6-3,0.3-4.5,0.2
	C329.4,242.6,328.1,243.5,327.9,241.7L327.9,241.7z"/>
<path class="st37" d="M323.9,169.1c2-0.3,2.2,1.2,2.5,2.5c1.7,6.2,1.6,12.3,0,18.7c-2.5,9.9-8.2,16.6-16.6,21.6
	c-7.9,4.7-16.5,5.1-25.3,3.6c-1.2-0.2-1.4-1.3-2.2-1.9c0.5-0.9,0.9-1.8,1.4-2.7c1.5,1.7,3.4,2.2,5.7,2.4c7.8,0.6,15-0.9,21.4-5.6
	c8.7-5.4,12.5-13.8,13.9-23.4c0.4-2.9-0.2-6.2-0.7-9.3C323.7,173,322.7,171,323.9,169.1L323.9,169.1z"/>
<path class="st38" d="M360.2,110.5c0.5,3.1,2.9,5,4.8,7.1c5.5,6.1,10.3,12.7,13.6,20.2c0.5,1.1,1.8,1.7,1.8,3.1l-2.6,2.6
	c-1.7,0.4-2.1-1-2.6-2c-4.8-9.2-10.7-17.7-18-25.2c-0.7-0.7-1.5-1.4-1.1-2.6C357.1,112.2,358.6,111.3,360.2,110.5L360.2,110.5z"/>
<path class="st39" d="M337.3,327.1c-5.3,0.7-10.3,2.7-15.6,3.6c-7.1,1.2-14.3,2.2-21.5,2.5c-1.3,0.1-2.6,0.4-3.9,0.6
	c-0.3,0.6-1,0.3-1.4,0.7c-2.4-0.6-4.7-1.4-6.8-2.6c2.1-2.6,5.3-1.7,7.8-1.7c10.8-0.2,21.3-1.6,31.8-4c3.2-0.8,6.4-1.6,9.7-2.4
	C337.4,324.9,337.4,326,337.3,327.1L337.3,327.1z"/>
<path class="st40" d="M334.1,138.8c0.9-2,2.6-3.2,4-4.7c1.1-0.9,2.1-1.1,3.2,0c4.9,4.6,8.6,10,11.5,15.9c0.4,0.8,0.6,1.7,0,2.6
	c-2.2,1.2-4.6,1.2-7,1.5C342,149,338.5,143.5,334.1,138.8L334.1,138.8z"/>
<path class="st41" d="M242.6,303.6c-2.8,2.2-5.1,0.6-7.7-0.7c-10.3-5.3-20.2-11.1-29-18.7c-2.1-1.8-3.8-3.8-3.1-6.8
	c3.2,0.6,5.3,3.1,7.6,5c8.8,7.5,18.7,13.2,29.1,18.2c2,1,3.1,0.3,4.3-1.1l0,0c0.3-0.3,0.5-0.2,0.8,0
	C244.5,301.2,244.3,302.8,242.6,303.6L242.6,303.6z"/>
<path class="st42" d="M230.4,315.8c1.5,0.6,2,2,2.7,3.2c-0.7,2.4-2.4,1.3-3.6,0.8c-4.9-2-9.6-4.2-14-7.1c-4.9-3.2-9.6-6.5-14.4-9.7
	c-1-0.7-1.9-1.5-2.5-2.7c-0.2-0.8,0.3-1.2,0.8-1.7c1.1-0.6,2.3-0.2,3.4-0.4c1-0.1,1.7,0.6,2.4,1.1c7.2,5.5,15.1,10,22.6,15
	C228.6,315,229.2,315.9,230.4,315.8L230.4,315.8z"/>
<path class="st43" d="M198.8,300.2c9.8,6.9,19.5,14.2,30.7,18.7c1.2,0.5,2.4,1.5,3.6,0c1.6,1.8,4.4,2.2,5.3,4.8
	c-0.6,2.8-2.5,2.1-4.2,1.5c-3.8-1.4-7.5-2.9-11.1-4.8c-8.3-4.4-16.5-9.1-24-14.8c-1.4-1.1-2.6-2.1-2.5-4c0.1-0.2,0.2-0.4,0.2-0.6
	C197.5,300.6,197.9,299.8,198.8,300.2L198.8,300.2z"/>
<path class="st35" d="M356.1,113.8c3.8,4.4,7.6,8.7,11.2,13.2c3.3,4.3,5.5,9.2,8.3,13.6c0.6,1,0.9,2.3,2.2,2.8
	c-0.1,0.2-0.3,0.5-0.4,0.7c-1.3,0.3-2.1,1.3-3,2.1c-0.1,0.7-0.5,1.1-1.2,1.3c0.2-1.6-0.1-3.1-0.8-4.7c-3.8-8.3-9.3-15.4-15.1-22.2
	c-1.1-1.3-2.6-2.4-4.5-2.8C354,116.7,354.5,114.7,356.1,113.8z"/>
<path class="st44" d="M196.7,301.5c2.1,3.7,5.9,5.6,9.2,7.8c9,5.9,18.3,11.3,28.5,15.1c1.6,0.6,2.9,1,4.1-0.7c1.2,1.1,2,2.5,2.7,4
	c-0.6,0.9,1.1,1.8,0.1,2.7c-9.5-4.5-19.4-8.3-28.5-13.8c-5.9-3.6-11.8-7.2-17.2-11.7C196.3,303.9,195.6,302.5,196.7,301.5
	L196.7,301.5z"/>
<path class="st45" d="M352.8,152.3c-2.6-7-7.3-12.6-12.2-18c-0.8-0.9-1.7-0.2-2.5-0.2c1-2,2.7-3.5,4.6-4.7c0.4-0.5,0.8-1.1,1.6-0.7
	c5.7,6.1,10.2,13,14.3,20.2c0.5,0.9,1,1.8,0.4,2.8c-0.6,0.4-1.2,0.5-1.9,0.5c-1.3,0.1-2.6,0.9-3.9,0.3
	C353.1,152.5,352.9,152.4,352.8,152.3L352.8,152.3z"/>
<path class="st46" d="M390,124.8c0.2-1.9-0.4-3.5-1.6-5.1c-4.6-6.5-9.9-12.4-14.8-18.6c-0.4-0.4-0.1-1-0.1-1.4
	c0.7-0.5,1.4-0.9,2.1-1.4c1.9-0.4,3.2,0.1,4.6,1.7c4.4,5,8.3,10.4,12.4,15.6c1.1,1.4-0.2,2.5,0.1,3.7
	C392.4,121.5,391.3,123.2,390,124.8L390,124.8z"/>
<path class="st47" d="M285.5,208.7c-0.1-1,0.2-1.8,0.8-2.6c10,2.9,18.4,0.3,25.5-7.1c6.6-6.8,8.8-18,5.2-26.7
	c-0.2-0.6-0.8-1.1-0.5-1.9c0.4-0.2,0.9-0.5,1.3-0.7c2.1,0,3,1.1,3.7,3.1c6.3,19.8-10.5,39.3-28.7,38.1c-2.5-0.2-5.2,0.8-7.3-1.3
	C285.3,209.4,285.3,209,285.5,208.7L285.5,208.7z"/>
<path class="st48" d="M316.5,170.5c3.5,3.6,3.4,8.3,3.1,12.5c-0.5,8.8-4.6,16.1-12.2,21.1c-5.4,3.5-11.4,4.6-17.8,4
	c-1.5-0.1-2.4-1-3.3-2c0.4-0.7,0.8-1.4,1.3-2.1c11.2,3.3,20.7-2.8,25.4-10.1c3.7-5.8,4-12.4,2.8-19.1c-0.2-1.4-1.8-1.6-1.9-2.9
	C314.7,171.4,315.6,170.9,316.5,170.5L316.5,170.5z"/>
<path class="st49" d="M285.6,209.4c8.8,1.7,17.2,1,24.4-4.7c8.3-6.4,12.5-14.9,11.9-25.5c-0.1-2.6-1.5-4.9-1.6-7.5
	c-0.1-1.4-1.9-1-2.5-2c0.7-0.2,1.3-0.5,2-0.7c2.1,0.1,3.2,1.3,3.7,3.2c3,12.8,0.1,23.8-9.5,32.9c-7.2,5.9-15.5,8.6-24.8,7.8
	c-1.1-0.1-2.3,0-3.3-0.6C284.6,211.6,283.8,210.7,285.6,209.4L285.6,209.4z"/>
<path class="st50" d="M306.4,254.5c-0.5,1.4-1.9,1.6-3.1,1.7c-10.2,1.4-20.3,0.8-30.2-2c-0.2,0-0.3-0.3-0.5-0.4
	c0.4-1.6,2.5-0.9,3-2.3c0.7-0.7,1.5-1.4,2.6-1c2,0.7,4,0,6,0.4c1.5,1.1,3.3,0.1,4.8,0.8l-0.1-0.1c2.9,0.4,5.7,1.8,8.7,0.8
	c2.8,0.2,5.5,0.4,8.2,1.2c-0.8,0.6-1.6,0.4-2.4,0.3C304.4,254.5,305.5,253.8,306.4,254.5L306.4,254.5z"/>
<path class="st24" d="M252.6,259.2c-6.1-2.3-11.2-6.2-16.2-10.3c-2.1-1.7-3.9-3.6-5.9-5.4c-0.9-0.9-1.8-1.7-0.8-3.1
	c1.5-0.2,3-0.3,4.1,1.2c1.2,0.9,2.8,0.3,3.9,1.2c3.6,2.7,7,5.7,11,7.9c1.4,0.8,2.5,1.2,3.9,0.4c0.6,0.6,0.7,1.4,0.6,2.1
	C252.5,255.1,253.9,257.3,252.6,259.2L252.6,259.2z"/>
<path class="st51" d="M392.7,119.4c0.2-2.1-1-3.6-2.3-5.2c-3.1-3.9-6.1-7.9-9.2-11.8c-1.5-1.9-3-3.8-5.7-4.2
	c1.4-0.6,2.7-1.2,4.1-1.9c1.2,0.6,2.3-0.9,3.5-0.3c4.8,4.5,8.6,9.8,12.6,15c0.4,0.6,0.4,1.5,0.1,2.2
	C395.4,115.6,393.9,117.4,392.7,119.4L392.7,119.4z"/>
<path class="st23" d="M395.9,113.3c-2-4.2-5.1-7.5-8-11c-1.6-1.9-3.2-3.9-4.8-5.9c0.2-2.1,2.5-0.9,3.3-2.1c0.1-0.2,0.3-0.4,0.4-0.6
	c0.6-0.2,1.3-0.3,2-0.3c2.4,1,3.4,3.5,5.1,5.2c2,2,3.7,4.1,5.6,6.2c0.1,1.2-0.7,2.2-0.9,3.4C398.1,110,397.2,111.8,395.9,113.3
	L395.9,113.3z"/>
<path class="st52" d="M256.7,232.4c-0.5,0.6-1.1,0.7-1.8,0.7c-0.5,0.2-0.9,0.1-1.2-0.2c-7-6.1-13-13-17.8-20.9
	c-0.2-0.4-0.3-0.8,0-1.2c0.6-1.7,1.3-3.4,2.7-4.6c1.7,1.6,2.7,3.8,3.9,5.8c3.1,5.2,7,9.7,11.6,13.7c1.6,1.4,3.3,2.7,4.3,4.7
	C258.3,231.3,256.8,231.4,256.7,232.4L256.7,232.4z"/>
<path class="st53" d="M230.4,218.7c0-1.9,0.8-3.3,2.6-4c1.6-0.9,2.3,0.5,2.8,1.4c3.7,6.1,8.6,11.3,13.6,16.3
	c0.1,0.6-0.4,0.8-0.8,1.1c-2.9,0.4-5.5-0.6-8.3-1.2c0.6-0.7,1.2-0.4,1.9-0.3c-0.8-0.2-1.6,0-2.3-0.2c-4.2-3.1-6.8-7.4-9.7-11.6
	C229.9,219.8,230,219.2,230.4,218.7L230.4,218.7z"/>
<path class="st54" d="M276.1,170.3c-0.9,0.2-1.8,0.5-2.7,0.7c-1.1-0.4-3.1,0-1.9-2.3c4.9-10.3,19.7-15.9,30.1-11.3
	c1.5,0.7,3.3,1.2,2.9,3.5c-1.1,1.1-2.5,1.7-4,2.1c-1.9-1.7-4.1-2.2-6.8-2.2c-6.4-0.1-11.8,1.7-16,6.6
	C276.9,168.4,276.3,169.2,276.1,170.3L276.1,170.3z"/>
<path class="st55" d="M282.9,342c-2.2,2.6-5.2,1.3-7.7,1.1c-4.5-0.3-9-1.1-13.5-1.9c-1.7-0.3-4-0.4-3.8-3.3c2.3-2.7,5.4-2.8,8.6-2.4
	c4.7,0.7,8.8,2.9,13,5c0.6,1.1,1.6,1.3,2.7,1.2C282.5,341.8,282.7,341.9,282.9,342L282.9,342z"/>
<path class="st56" d="M249.2,232.9c-4.8-3.9-8.7-8.5-12.2-13.5c-1.2-1.7-1.7-4-4-4.7c0.1-1.9,1-3.3,2.8-4.1
	c5.4,8.3,11.8,15.7,19.1,22.4c-0.6,0.6-1.4,0.6-2.2,0.5C251.6,232.8,250.2,233.8,249.2,232.9L249.2,232.9z"/>
<path class="st57" d="M313.9,171.8c1.7,0.1,2.4,0.6,2.8,2.7c1.1,6.1,0.8,12.1-1.7,17.7c-2.2,4.9-6.2,8.4-10.8,11
	c-3.3,1.8-7.2,2.3-10.9,2.8c-2.2,0.3-4.3,0-5.7-2c0.2-0.4,0.5-0.9,0.7-1.3c4.8,0.6,9.5,0.5,14-1.8c9.3-4.8,13.7-14.3,11.6-24.5
	c-0.2-0.8-0.3-1.6-1.2-1.9c-0.6-0.2-1.2-0.3-1.6-0.8C312,173.1,312.9,172.5,313.9,171.8L313.9,171.8z"/>
<path class="st58" d="M266.9,223.6c0.1,1.1-0.7,1.5-1.5,2c-2.6,0.1-4.2-1.9-5.9-3.3c-6.7-5.6-11.9-12.3-15.5-20.2
	c-0.8-1.7,0.7-2.6,0.6-4c0.8-1.2,1.7-2.3,2.5-3.4c1-0.3,1.3,0.6,1,1.1c-1.1,2,0,3.6,0.7,5.3c3.6,7.7,8.6,14.2,15.5,19.3
	C265.6,221.1,266.7,222,266.9,223.6L266.9,223.6z"/>
<path class="st59" d="M266.9,223.6c-2.2-1.9-4.3-3.8-6.5-5.6c-5.3-4.2-8.6-10-11.9-15.8c-1.4-2.4-2.1-4.9-1.4-7.7
	c1.1-1.3,2.3-2.7,3.4-4c2.3,1,0.4,2,0,3c-1.7,2.4-0.3,4.7,0.8,6.6c3.5,6.4,7.5,12.5,13.4,17c1.5,1.2,3,2.7,5.3,1.7
	c0,0,0.2,0.1,0.2,0.2c0.1,0.2,0.1,0.4-0.1,0.6C269.3,221.2,268.8,223,266.9,223.6z"/>
<path class="st60" d="M333.6,132.9c-0.4,1-1.4,1.3-2.2,1.9c-1.2,0.6-2.1-0.2-3-0.8c-2.5-1.7-5.1-3.4-7.9-4.8c-1.3-0.7-2-1.6-1.8-3.1
	c1-1.3,2.4-2,3.9-2.6c1.3,0.2,2.1-1.1,3.3-1.2c0.3,0,0.6,0.1,0.9,0.2c2.9,2.3,6.3,3.9,8.7,6.8C335.9,131,333.4,131.3,333.6,132.9
	L333.6,132.9z"/>
<path class="st20" d="M244.6,198c0,5.6,3.2,9.8,6.3,14c4,5.4,8.9,9.9,14.6,13.5c-0.4,0.4-0.9,0.9-1.4,1.3c-1.3,0.8-2.3,0.2-3.4-0.5
	c-8.3-5.4-13.9-13.2-18.6-21.7c-0.9-1.7,0.5-2.7,0.4-4C242.9,199.5,243.9,198.9,244.6,198L244.6,198z"/>
<path class="st61" d="M258,230.3c-6.9-5.8-13.3-12.1-17.7-20.2c-0.7-1.3-1.2-2.7-1.8-4.1c0.3-1.2,1.5-1.7,2.1-2.7
	c0.8-0.2,0.9,0.4,1.1,0.9c3,8.4,9,14.7,15.4,20.6c1.8,1.7,3.8,2.8,6.4,2.7c-0.7,1-1.1,2.2-2.6,2C259.9,230.1,259.2,231,258,230.3
	L258,230.3z"/>
<path class="st62" d="M230.4,218.7c2.3,4.9,6.4,8.5,9.5,12.8c-0.2,0.3-0.4,0.5-0.7,0.6c-2.8-0.1-5.5-0.4-8.2-1.2
	c0.6-0.6,1.2-0.5,1.4-0.4c-0.6,0.1-1.6-0.3-2.6,0.3c-0.8,0.1-1.6,0.2-2.2-0.5c-0.9-1.5-0.8-3.2-1.1-4.8
	C227.2,223,227.7,220.3,230.4,218.7L230.4,218.7z"/>
<path class="st63" d="M257.3,185.1c0.2-1.6,1.6-1.9,2.7-2.6c0.7,0.2,0.8,0.7,0.5,1.7c-1.9,2.8-0.5,5.3,0.5,7.9
	c2.6,7.1,7.3,12.6,13.1,17.4c0.5,0.4,1.3,0.6,0.9,1.5c-0.2,0.4-0.5,0.8-0.7,1.3c-0.6-0.1-1,0.5-1.6,0.4c-1.2,0-2.1-0.8-2.9-1.5
	c-6.3-4.9-10.7-11-13-18.7c-0.4-1.5-1-3-1.6-4.4C254.9,186.5,256.5,186.1,257.3,185.1L257.3,185.1z"/>
<path class="st64" d="M273.5,212.1c0.3-0.5,0.5-0.3,0.7,0.1c-0.9,1.6-1.8,3.2-2.6,4.8c-1.1,0.2-2-0.1-2.8-0.8
	c-7.7-5.8-13.5-12.9-16.4-22.2c-0.6-1.9-0.6-3.7,0.2-5.5c1.2-1.7,2.7-2.9,4.8-3.4c-0.7,0.9-1.3,1.9-2,2.8c0.2,5.7,3.2,10.3,5.9,15.1
	c2.2,3.9,5.7,6.5,9.1,9.3C271.5,213.3,272.4,212.9,273.5,212.1L273.5,212.1z"/>
<path class="st65" d="M399.2,104.5c-4.1-1.8-5.7-6-8.8-8.8c-0.6-0.5-0.9-1.3-1.3-1.9c0.8-1.7,2.9-1,4-2.2c0.4-1.3,1.6-1.2,2.6-1.5
	c1.6,1.9,2.9,3.9,4.6,5.7c2,2.2,2.5,4.3,0.7,6.8c-0.4,0.6-0.9,1.3-0.9,2.1l-0.1-0.2l0.1,0.2C399.8,104.9,399.5,104.8,399.2,104.5
	L399.2,104.5z"/>
<path class="st66" d="M311.1,173.8c0.7,0,1.4,0,2.1,0c5,12.9-4.2,28.2-19.6,29.5c-0.7,0.1-1.3-0.1-2-0.2c-2.6-0.2-2.6-1.4-1.3-3.2h0
	c0.7-0.6,1.6-0.9,2.5-0.8c11.1,0.5,20.8-10.8,17.1-23.4c-0.1-0.4-0.2-0.9,0-1.3C310.2,174.3,310.6,174,311.1,173.8L311.1,173.8z"/>
<path class="st67" d="M309.8,174.5c2.9,3.9,2,8.2,0.8,12.3c-2.5,9.1-9.3,13.4-20.4,13.2c0.1-1.3,0.8-2.3,1.4-3.3
	c8.6,1.9,18.4-7.2,16.6-18.6c-0.1-0.7-1-0.5-1.3-0.9C307.7,176,308.6,175.1,309.8,174.5L309.8,174.5z"/>
<path class="st19" d="M252.5,188.5c0.6,12.5,8.5,20.4,17.3,27.7c0.5,0.4,1.4-0.1,1.7,0.8c-0.2,0.4-0.5,0.9-0.7,1.3
	c-1.1,0.2-2.2,0.4-3.2-0.3c-8.7-6-14.7-13.9-17.7-24.1c-0.1-0.2,0-0.4,0-0.7c0-0.9,2.1-1.4,0.6-2.7
	C251.2,189.9,251.9,189.2,252.5,188.5L252.5,188.5z"/>
<path class="st68" d="M263.4,227.6c-2.2,1.4-3.8,0.4-5.5-1c-6.9-5.6-12.6-12.1-16.4-20.2c-0.5-1-0.1-2.2-0.9-3
	c0.1-1.3,1.5-1.7,2-2.7c-0.4,5.4,3.5,8.9,5.9,12.8c3.3,5.2,8,9.1,13.1,12.7c0.8,0.6,1.6,0.7,2.5,0.7
	C263.9,227.2,263.7,227.4,263.4,227.6L263.4,227.6z"/>
<path class="st69" d="M290.3,200c-1.2,3.3,1.7,2.8,2.9,2.6c7.5-1.2,14-4.1,17.7-11.4c2.2-4.4,3.9-8.7,2.4-13.7
	c-0.3-1.1-0.1-2.4-0.1-3.7c2.5,0.7,1.8,2.9,1.9,4.4c1.3,13-6,22.5-18.4,25.6c-2.9,0.7-5.8,0.3-8.4-1.1
	C288.8,201.7,289.1,200.5,290.3,200L290.3,200z"/>
<path class="st70" d="M249.9,193.3c1.7,3.4,3.5,6.9,5.2,10.3c2.8,6,7.9,9.8,12.8,13.7c0.8,0.6,2,0.7,3,1c-0.2,0.4-0.5,0.9-0.7,1.3
	c-2.1,1.3-3.6-0.1-5-1.2c-7.2-5.4-12.2-12.5-15.6-20.8C249.1,196.5,247.6,194.5,249.9,193.3L249.9,193.3z"/>
<path class="st71" d="M304.5,161c-1.3-3-4.3-3.4-6.9-3.9c-3.4-0.6-6.9-0.4-10.4,0c-7.2,0.9-10.7,6.5-15,11.4
	c-1.7,1.9,0.8,1.7,1.2,2.5c-1,0.5-2.1,1.2-3-0.1c-0.6-1,0.2-1.9,0.8-2.7c2.8-4.1,6.4-7.4,10.1-10.7c1.9-0.6,2.7-2.7,4.5-3.3
	c6.2-1.6,12.2-1,18,1.8c1.5,0.7,3.2,1.4,2.7,3.7C305.8,160.2,305.2,160.6,304.5,161L304.5,161z"/>
<path class="st72" d="M274.9,210.9c-3.5-2.1-6.4-5-8.9-8.1c-3.2-4-5.6-8.5-6.9-13.5c-0.5-1.9-1.3-4,1-5.4c1.9,0.2,1.6,1.9,1.9,3
	c1.7,7.5,5.6,13.6,11.2,18.8c1.2,1.2,2.5,1,3.8,1.3c0,0,0.1,0.2,0.1,0.3c0,0.1-0.1,0.2-0.1,0.3C276.5,208.8,275.7,209.9,274.9,210.9
	L274.9,210.9z"/>
<path class="st73" d="M278.1,176.4c0.7-0.9,1.8-0.6,2.7-0.7c2.2-0.6,1.4,0.9,1.1,1.8c-0.9,2.4-0.8,4.7,0,7.1
	c0.8,2.6,1.9,4.7,4.6,5.6c0.4,0.2,0.7,0.4,0.5,1c-0.9,1.4-1.2,3.1-2.7,4.1c-6.2-2.9-9.6-9.7-8.2-16.2
	C276.3,177.8,277.4,177.3,278.1,176.4L278.1,176.4z"/>
<path class="st74" d="M276.9,207.5c-1.7,0.6-2.8,0.2-4.3-1.1c-6.3-5.8-10.3-12.7-11.9-21c-0.1-0.5-0.4-1-0.7-1.4
	c0.1-0.5,0.8-0.9,0-1.4c1-0.8,1.9-1.9,3.3-2c0.4-0.3,0.9-0.3,1.4-0.2c0.2,0.3,0.3,0.6,0.2,0.9c-2.3,4.3,0,8.1,1.4,11.8
	c1.3,3.4,3.7,6.3,6.2,9.1c1.6,1.7,3.6,2.5,5.9,2.6C277.9,205.7,277.4,206.6,276.9,207.5L276.9,207.5z"/>
<path class="st75" d="M363.7,187.9c-0.7-7.9-1.4-15.7-2.1-23.6c0.2-0.3,0.5-0.3,0.8,0c0.8-0.2,1.5-0.2,2,0.7c1,1.6,2.4,3.1,2.5,5.1
	c1.5,2.6,0.4,5.2,0.2,7.7c-0.2,0.7,0.5,1.6-0.7,2c-0.8,1.3-0.6,2.9-1.4,4.1C365.1,185.5,364.6,186.8,363.7,187.9L363.7,187.9z"/>
<path class="st76" d="M335.3,129.4c-2.9-2.2-6.3-3.8-8.7-6.7c1.5-2.6,4.1-3,6.6-3.7c2.6,2,6,2.9,7.9,5.9l-3.2,3.2
	C337,128.4,336.6,129.8,335.3,129.4L335.3,129.4z"/>
<path class="st77" d="M264.7,181.2c0-0.2,0-0.4,0-0.7c0.8-0.7,1.6-1.2,2.8-0.8c1.1,1.6,1,3.6,1.4,5.4c1.6,6.8,4.2,12.9,11,16.1
	c0.3,0.2,0.4,0.5,0.2,0.8l-1.3,2.1c-1.8,0.7-3.3-0.1-4.5-1.2c-3.6-3.2-6.6-6.7-8.1-11.5c-0.8-2.6-1.8-5.2-2-8
	C264.2,182.6,264.1,181.8,264.7,181.2L264.7,181.2z"/>
<path class="st78" d="M313.8,204.7c4.7-5.5,8.7-11.2,9.7-18.7c0.7-4.9,0.3-9.5-1-14.2c-0.4-1.5-1.7-2-2.7-2.8c0.7-0.2,1.4-0.4,2-0.6
	c0.5,0.8,1.3,0.6,2,0.7c0.7,4.8,1.4,9.6,1.9,14.4c0.2,2.1-0.8,4.2-1.4,6.1c-2.2,7.6-5.7,14.6-13.3,18.5
	C311,206.2,312.8,205.8,313.8,204.7L313.8,204.7z"/>
<path class="st17" d="M252.7,251c-0.6,1-0.9,2.7-2.5,1.5c-4.2-3.1-9.3-4.9-12.3-9.5c-0.2-0.1-0.3-0.3-0.2-0.4
	c0.1-0.1,0.2-0.2,0.2-0.2C245.3,241.9,251.7,245.2,252.7,251L252.7,251z"/>
<path class="st79" d="M400.1,104.7c0-0.2-0.2-0.5-0.1-0.6c3.1-4.5,0.3-7.5-2.7-10.5c-1-1-1.7-2-1.6-3.5c0.9-0.3,1.9-0.7,2.8-1
	c0.9,0.3,1.7-0.2,2.6-0.4c0.4-0.1,0.6-0.5,0.2-0.3c0,0-0.2-0.1-0.2-0.2c1.3-0.7,2.5-0.9,3.8,0c1,2.4,1.1,4.7-0.2,7
	C404.4,98.9,402,101.7,400.1,104.7L400.1,104.7z"/>
<path class="st80" d="M276.1,170.3c-0.4-0.6-1.4-1.1-0.6-1.9c4.1-4,7.9-8.4,14.4-8.1c3,0.2,6.1-1.3,9.1,0.6c0.9,0.6,1.5,1.1,1.5,2.2
	c-0.8,0.8-1.7,1.2-2.8,1.3c-6.1-2.6-11.2-0.5-16.2,2.9c-0.7,0.5-1.1,1-1.3,1.8C278.8,169.5,277.5,169.9,276.1,170.3L276.1,170.3z"/>
<path class="st57" d="M280.2,202c-4.1-0.6-6.3-3.9-8.3-6.9c-3-4.5-4.4-9.8-4.5-15.3c0-0.4-0.6-0.4-0.7-0.7c0.7-0.8,1.7-0.6,2.7-0.7
	c1.8-0.7,2.1-0.4,1.9,1.8c-0.5,7.4,2.4,13.4,8.3,18c0.3,0.2,0.6,0.1,1,0c0.6-0.2,1.1-0.5,1.8-0.3c0.2,0.3,0.2,0.6-0.1,0.8
	C281.5,199.8,280.8,200.9,280.2,202L280.2,202z"/>
<path class="st81" d="M334.1,138.8c3.5,1.3,5,4.6,6.9,7.2c1.6,2.3,4.3,4.3,4.3,7.6c-0.1,0.2-0.3,0.4-0.6,0.6c-0.5,0.2-1,0.4-1.4,0.8
	c-2.4,0.9-4.8,1.1-7.3,1.4c-0.8,0.2-1.7,0.7-2.3-0.5c0.7-1.3,2.1-1,3.1-1.4c1.1-0.4,2.4-0.1,3.6-0.9c-1.4-3.3-3.8-5.9-6-8.7
	c-0.8-1-1.9-1.9-1.8-3.4c0.2-0.8,0.8-1.4,1.2-2.1C334,139.2,334,139,334.1,138.8L334.1,138.8z"/>
<path class="st82" d="M307.1,134c1.6-1.1,3.3-2.2,4.9-3.3c0.6-0.4,1.2-0.4,1.9-0.3c3.5,2,7.3,3.5,10.5,6.1c0.9,0.8,2,1.4,2.6,2.5
	c0.1,0.5-0.1,1-0.3,1.5c-1.6,1.8-3.1,3.6-4.7,5.4c-0.5-0.3-0.6-0.8-0.6-1.3c0.1-0.8,0.7-1.4,1.2-2.1c0.2-0.4,0.4-1,0-1.2
	c-4.1-2.8-8.1-6-13.3-6.5c-0.6,0.2-1.2,0.4-1.8,0.3C307.1,134.8,306.8,134.6,307.1,134L307.1,134z"/>
<path class="st83" d="M285.6,154.9c-1.6,0.6-2.2,2.8-4.2,2.6c2.7-2.7,5.5-5.4,8.2-8.1c7.6-1.1,14.4,1.3,21,4.7
	c1,0.5,0.9,1.3,0.7,2.2c-0.6,1-1.7,1.5-2.7,2c-3.2-2.7-7.1-3.6-11-4.6C293.3,152.7,289.4,152.8,285.6,154.9L285.6,154.9z"/>
<path class="st84" d="M333.3,141.5c0.8,2.7,3.2,4.2,4.7,6.3c1.5,2.1,2.7,4.2,4,6.5c-1.6,0.7-3.1,0.7-4.7,0.7
	c-1.7-1.2-2.4-3.2-3.7-4.7c-1.6-1.8-2.7-4.3-5.8-3.6c0,0-0.1-0.2-0.1-0.3c0-0.1,0.1-0.2,0.1-0.3c0.7-1.1,1.2-2.3,2.7-2.7
	C331.5,142.7,331.7,141.2,333.3,141.5L333.3,141.5z"/>
<path class="st85" d="M307,177.1c0.7,0.3,1.8-1,2.1,0.7c1.5,10.3-4.9,18.5-14.2,20.2c-1.4,0.2-2.4-0.2-3.2-1.3
	c0.4-0.7,0.9-1.4,1.3-2c8.7,0.1,14.6-7.3,12.7-15.8c-0.1-0.3-0.1-0.7,0-1C306,177.3,306.5,177.1,307,177.1L307,177.1z"/>
<path class="st86" d="M291.7,147.6c2-1.8,4.1-3.6,6.1-5.4c7,0.9,13.5,3.1,18.9,7.9c0.1,1.5-1.1,2-2.1,2.6c-1.6,0.3-2.7-0.6-3.9-1.4
	c-3.6-2.4-7.7-3.9-11.9-4.8c-1.5-0.3-2.9-0.4-4,0.8C293.8,147.8,292.9,149.6,291.7,147.6L291.7,147.6z"/>
<path class="st78" d="M313.8,204.7c-0.9,1.1-1.8,2.2-2.7,3.4c-3.8,3.8-8.7,5.2-13.7,5.9c-3.4,0.5-7.1,0.4-10.6-0.2
	c-2-0.3-2.9-1.1-3.1-3c0.3-1,0.8-1.8,1.8-2.2c0,0.2,0,0.5,0,0.8c-1.2,2.6,0.9,2.6,2.3,2.7c9,0.6,17.6-0.7,24.7-7
	C312.8,204.9,313.4,204.9,313.8,204.7L313.8,204.7z"/>
<path class="st87" d="M264.7,181.2c0.9,7.6,3.1,14.6,8.9,20c1.5,1.4,3.2,2.6,5.3,2.9c-0.2,0.2-0.3,0.4-0.5,0.6
	c-2.8,1.9-4.7-0.3-6.2-1.8c-4.8-4.9-8.1-10.7-9.1-17.7C262.9,183.8,262.5,181.9,264.7,181.2z"/>
<path class="st88" d="M286.9,191.3c-4.6-0.8-7.6-6.7-6.5-12.1c0.2-1.1,1.7-2.2,0.4-3.4c1.9-1,4.1-0.8,6.1-1.3
	c0.9-0.5,1.8-0.3,1.1,0.8c-4.5,6.9-4.5,6.9,0.3,13.7c0,0-0.1,0.2-0.1,0.3C287.8,189.9,287.4,190.6,286.9,191.3L286.9,191.3z"/>
<path class="st89" d="M341.1,124.8c-2.5-2-5.8-2.8-7.8-5.5c-0.4-1.2,1-1.3,1.3-2l1.3-0.7c2.1,0.4,3.4-2,5.4-1.6
	c1.3,1.3,2.8,2.4,4.2,3.6c-0.3,2.2-3.1,2.8-3.5,5C341.8,124,341.4,124.4,341.1,124.8L341.1,124.8z"/>
<path class="st90" d="M316.5,150.2c-5.2-2.9-10.3-6.1-16.4-6.8c-0.8-0.1-1.6-0.8-2.3-1.2c0.3-0.3,0.6-0.5,0.9-0.8
	c1.2-0.1,1.8-1.5,3.1-1.6c5.6,1.2,10.8,3.3,15.3,6.8C319.3,148.4,319.2,149,316.5,150.2z"/>
<path class="st91" d="M280.2,169.1c0-0.5-1.4-0.6-0.4-1.5c4.3-3.8,9.3-5.7,15.1-5.2c1.3,0.1,2,1.2,2.8,2
	C291.8,165.9,286,167.5,280.2,169.1L280.2,169.1z"/>
<path class="st91" d="M278.1,176.4c0.2,0.1,0.4,0.1,0.6,0.2c-3.6,5.5-2.1,12.6,3.5,16.7c0.8,0.6,1.6,1.2,2.1,2.1
	c-0.2,0.4-0.5,0.8-0.7,1.3c-0.7,0.2-1.4,0.6-2.2,0.2c-5.8-4.4-8.5-10.2-7.9-17.4c0.1-0.3,0.2-0.6,0.3-0.9c0.1-0.6,1.2-0.6,1.1-1.4
	C275.7,176.1,277,176.6,278.1,176.4L278.1,176.4z"/>
<path class="st92" d="M316.5,150.2c1.3-0.7,2.2-1.3,0.4-2.7c-3.5-2.6-7.3-4.6-11.5-5.9c-1.3-0.4-2.6-0.5-3.6-1.5
	c0.3-2.1,1.6-3,3.5-2.2c4.7,1.8,9.4,3.6,13.6,6.6c1,0.7,1.8,1.7,1.8,3.1c-1.5,2.1-3.4,3.8-5.4,5.4c-0.7,0.2-0.8-0.1-0.7-0.7
	C315.4,151.8,316.1,151.1,316.5,150.2L316.5,150.2z"/>
<path class="st93" d="M314.5,152.3c0.2,0.2,0.5,0.5,0.7,0.7c-1,1.5-2.6,2.4-4,3.4c-0.8-0.4-0.2-0.9-0.1-1.4c-3.7-3.7-8.4-5-13.4-5.9
	c-1.4-0.2-3.3,0.1-3.5-2.1c0.6-1.2,1.3-1.7,2.9-1.5c5.2,0.8,10,2.4,14.3,5.5C312.4,151.6,313.3,152.2,314.5,152.3L314.5,152.3z"/>
<path class="st94" d="M313.8,130.7c-0.6,0-1.2,0-1.9,0c1.8-2.1,4.3-3.4,6.7-4.7c0.4,2.3,2.6,2.4,4.1,3.3c2.9,1.8,5.7,3.6,8.6,5.4
	l-0.2,0.6c-0.9,0.6-1.5,1.6-2.7,1.8c-3.8-1.4-6.7-4.2-10.3-5.9C316.7,130.7,315.4,130.2,313.8,130.7L313.8,130.7z"/>
<path class="st95" d="M288.3,189.3c-4.4-2.7-5.9-7.6-3.7-12.2c0.6-1.2,1.6-1.7,2.8-2c0.1,0,0.1-0.1,0.2-0.2
	c-0.2-0.2-0.5-0.3-0.7-0.4c3.8-1.4,5.4-1,6.7,2c-5.5-0.1-7.5,3.4-4.8,8.3c0.4,0.8,1.2,1.4,0.8,2.4
	C289.2,187.9,288.7,188.6,288.3,189.3L288.3,189.3z"/>
<path class="st96" d="M280.9,198.7c-0.2,1.4-0.9,1.4-1.8,0.6c-5.8-5.4-9.9-11.5-8.4-20.1c0.2-1.2-0.9-0.4-1.4-0.7
	c0.8-0.8,1.8-0.6,2.7-0.7c0.8-0.2,1.9-1,2.1,0.7l0,0c-1.6,1.3-1.2,3-1,4.6c0.7,4.4,2.2,8.5,5.7,11.7
	C280,195.8,281.4,196.8,280.9,198.7L280.9,198.7z"/>
<path class="st18" d="M320.6,147.6c-2.5-3.4-6.3-4.9-9.9-6.5c-1.6-0.7-3.2-1.6-4.8-2.2c-1.8-0.7-3.3-0.8-4.1,1.3
	c-1,0.5-1.7,1.6-3,1.3c1.7-1.5,3.4-3,5.1-4.6c1.3,0.4,1.8-1.6,3.2-0.9c5.2,2.3,10.7,4.3,15,8.3c0,0.6,0.1,1.1,0.1,1.7
	C321.5,146.5,321.1,147,320.6,147.6L320.6,147.6z"/>
<path class="st97" d="M294.3,146.9c2.7,2.3,6.3,1.4,9.4,2.6c2.8,1.1,5.2,2.9,7.9,4.2c1.1,0.6,0,0.9-0.4,1.3
	c-3.4-0.5-6.3-2.4-9.5-3.5c-3.3-1.2-6.4-1.1-9.7-1.2c-0.9,0-1.8,0.1-2.4-0.8c0.7-0.6,1.4-1.2,2.1-1.8
	C292.9,148.9,293.3,146.9,294.3,146.9L294.3,146.9z"/>
<path class="st98" d="M305.8,177.8c2.3,2,1.5,4.6,1.1,6.9c-0.9,5.1-6.3,10-11.4,11.1c-1.4,0.3-1.8-0.6-2.5-1.1
	c0.4-0.7,0.9-1.4,1.3-2c7.1-1.6,9.7-4.8,9.8-12.2c0-0.4,0.1-0.9,0.3-1.3C304.7,178.5,305.1,178.1,305.8,177.8L305.8,177.8z"/>
<path class="st99" d="M285.6,154.9c2.7-3.8,6.8-3.1,10.2-2.5c3.4,0.6,6.9,1.2,10.1,3c1.3,0.8,2.3,1.5,2.7,2.9
	c-0.7,0.4-1.3,0.9-2,1.4c-1.6-3.5-5.2-3.6-8.1-4.7C294.2,153.5,289.8,154.5,285.6,154.9L285.6,154.9z"/>
<path class="st100" d="M289.6,187.2c-2-2.1-3.2-4.5-2.7-7.5c0.6-3.5,3.8-5,6.7-3.2c0.9,1.5,0.1,1.8-1.2,2.5c-1.5,0.8-3,1.9-1.4,4.2
	C292.3,184.9,291,186.2,289.6,187.2L289.6,187.2z"/>
<path class="st101" d="M334,155.6c0.5,0.8,1.4,0.5,2.1,0.7c-2.7,0.8-5.3,1.5-8.2,1.2c0.4-1.8,0-3.4-1.6-4.6c-0.5,1.2,0.3,2,0.7,3
	c0.6,1.5-0.3,1.4-1.3,1c-2.6-2.5-2.4-4.3,0.7-8.9C329.7,148.5,333.1,151.8,334,155.6L334,155.6z"/>
<path class="st102" d="M334,155.6c-2.2-2.8-4-6.1-7.5-7.5c0.5-0.6,0.9-1.3,1.4-1.9c2.2-1.2,3.4,0.1,4.7,1.6c1.9,2.2,3.7,4.4,4.7,7.1
	C336.4,156.1,335.1,155.5,334,155.6L334,155.6z"/>
<path class="st103" d="M345.4,196.6c0.6-6.3,1.8-12.5,1.4-18.9c-0.2-3.1-0.8-6.1-1.3-9.2c-0.3-1.7-1.2-2.3-2.8-2.2
	c-0.5,0.5-1.1,0.7-1.8,0.8c-0.7,0-1.4-0.1-2-0.4c-0.1-0.1-0.2-0.3-0.3-0.4c1.6-1.4,3.6-1.1,5.5-1.2c0.5,0.8,1.3,0.6,2,0.7
	c1.6,1.5,1.8,3.6,2.1,5.5c1.4,7.6,1,15.1-0.5,22.7C347.4,195.3,347.4,196.7,345.4,196.6L345.4,196.6z"/>
<path class="st24" d="M345.4,118.6c-2.1-0.2-3.3-1.5-4-3.4c-0.3-0.3-0.8-0.4-0.9-0.8c0.8-0.7,1.7-1.1,2.7-1.3
	c2.4-0.4,4.5-1.8,6.7-2.8c0.7-0.2,1.5-0.6,2.1,0.1c0.6,0.7,0.1,1.4-0.3,2c-0.4,0.7-1.3,1.2-1.4,2.1c-0.3,0.4-0.6,0.9-1,1.3
	C347.8,116.6,347.4,118.7,345.4,118.6L345.4,118.6z"/>
<path class="st104" d="M304.4,179.2c1.9,5.7-1.6,12.2-7.2,13.8c-1.1,0.3-1.9,0.2-2.9-0.3c0.4-0.7,0.9-1.4,1.3-2
	c4.1-1.8,6.6-4.8,6.7-9.4C302.8,180.3,303.5,179.6,304.4,179.2L304.4,179.2z"/>
<path class="st105" d="M307.8,231c-0.9,1.9-2.9,1.7-4.3,1.9c-7.1,1.1-14.3,1.3-21.4-0.1c-1.2-0.2-2.3-0.5-3.3,0.5
	c-0.7-0.9-1.2-1.8-1.2-3c0.3-0.2,0.6-0.4,1-0.4c8.5,2.4,17.1,2.5,25.8,0.6C305.5,230.3,306.7,229.9,307.8,231L307.8,231z"/>
<path class="st106" d="M282.2,235.6c1.4-1.2,3.1-0.8,4.5-0.6c8.4,1.5,16.5-0.2,24.5-2.4c0.6-0.2,1.3-0.2,2-0.3
	c-0.1,1.9-1.8,2-3.1,2.5c-6.9,2.6-14.2,2.6-21.4,2.6c-1.1,0-2.2-0.2-3.3,0.2c-0.2,0.1-0.4,0.1-0.5,0.2c-0.2,0-0.4-0.1-0.6-0.1
	c-0.6-0.6-1.4-0.9-1.9-1.6C282.3,235.9,282.2,235.8,282.2,235.6L282.2,235.6z"/>
<path class="st107" d="M302.4,181.2c1.4,4.2-2.5,9.5-6.7,9.4C297.6,187.2,299.6,183.9,302.4,181.2z"/>
<path class="st108" d="M256.7,290.2c0.9,0.7,0.5,1.8,0.7,2.7c1,1.3,0.2,2.7,0.2,4.1c0,0.9,0,1.8,0,2.6c0,0.7,0,1.4,0,2.1
	c0,1.1,0,2.1,0.1,3.2c0.1,1.4,0.9,2.8-0.3,4.1c0,0.5,0,1-0.1,1.4C253.7,303.8,255.7,297,256.7,290.2L256.7,290.2z"/>
<path class="st109" d="M325.8,157c0.3-0.2,1.5-0.1,0.6-0.8c-1-0.8-1.1-1.8-1.1-2.9c0-0.8,0-1.7,0.9-1.9c0.8-0.2,1.1,0.7,1.3,1.3
	c0.6,1.6,3.3,3,0.5,4.9C327.2,157.7,326.4,157.7,325.8,157L325.8,157z"/>
<path class="st110" d="M340.8,292.4l-0.2,1.8c-0.7,1.6,0.1,3.4-0.6,5.1c0.1,2.9,0,5.7-0.6,8.6c-0.6-1.8-0.9-3.6-1.1-5.4
	c-0.1-0.3-0.2-0.7-0.2-1c0-1.2,0.4-2.3,0.3-3.4c0-0.7,0-1.4,0-2c0-0.9,0-1.8,0.2-2.6c0.4-1.7,0.3-3.6,1.4-5.2l0,0
	c0.4-0.2,0.7-0.2,0.9,0.3C341,289.7,341.2,291.1,340.8,292.4L340.8,292.4z"/>
<path class="st111" d="M307.1,239.7c0.6,0,1.1,0.1,1.4,0.7c-0.5,0.4-1.1,0.3-1.6,0.3c-1.2,0-2.3,0.1-3.4-0.3c-0.8,0-1.6-0.1-2.3-0.1
	c-1.4-0.7-2.9,0.1-4.3-0.5c-0.6,0-1.2-0.1-1.8-0.2c-1.2-0.6-2.5,0-3.6-0.5c-0.6,0-1.1-0.1-1.7-0.2c-0.1-1.1,0.8-1.2,1.5-1.4
	c1.6-0.2,3.1-0.2,4.6,0.1c2.7,0.7,5.5,0.2,8.3,0.9C305.1,238.9,306.3,238.8,307.1,239.7L307.1,239.7z"/>
<path class="st112" d="M334.7,117.3c0.1,1-0.9,1.3-1.3,2c-2.5,0.7-4.7,1.8-6.7,3.4c-0.2,0-0.5,0-0.7,0c-0.3-0.2-0.7-0.3-0.8-0.7
	C328.1,119.9,331.4,118.5,334.7,117.3L334.7,117.3z"/>
<path class="st113" d="M327.9,241.7c0.9,1.1,2,0.5,3,0.2c1.2-0.3,2.6-0.7,3.7,0.4c-2.4,1-4.9,0.9-7.4,0.6c-1.4-0.6-2.9,0-4.3-0.5
	c-0.8,0-1.6-0.1-2.4-0.2c-0.2-0.2-0.2-0.3-0.2-0.5c0-0.2,0.1-0.3,0.1-0.3c0.3-0.1,0.5-0.1,0.8,0.1
	C323.5,241.7,325.7,241.7,327.9,241.7L327.9,241.7z"/>
<path class="st114" d="M240.5,379.5c0.4-0.5,0.9-0.5,1.5-0.1c2.7,1.6,5.5,2.6,8.7,1.8c-2.1,2.4-4.5,1.2-6.7,0.4
	C242.7,381.1,241.6,380.2,240.5,379.5L240.5,379.5z"/>
<path class="st115" d="M321.2,241.7c-0.2,0-0.4,0-0.7,0c-1.5,0.6-2.9,0.4-4.4,0.1c-1-0.1-2-0.1-3-0.2c-1.2-0.5-2.5,0-3.7-0.5
	c-0.8-0.1-1.6-0.1-2.4-0.2c-0.2-0.1-0.3-0.3-0.2-0.4s0.1-0.2,0.2-0.2c0.4,0,0.9,0,1.4,0c3.8,0.2,7.6,0.5,11.4,0.7
	C320.4,241.1,320.9,241.2,321.2,241.7L321.2,241.7z"/>
<path class="st116" d="M341.4,278.7c0.3-1.8-0.6-3.7,0.6-5.3c0.9,3.1,0.6,6.3,0,9.4c-0.3,0.2-0.6,0.2-0.8,0.1
	c-0.4-0.3-0.7-0.6-0.7-1.1C340.4,280.6,340.6,279.5,341.4,278.7L341.4,278.7z"/>
<path class="st117" d="M367,177.8c-1-2.6,0.9-5.5-0.8-8.1c0.2-0.4,0.5-0.4,0.8,0C368.8,172.4,368.5,175.1,367,177.8L367,177.8z"/>
<path class="st118" d="M356.9,151.6c0.7,0,1.3,0,2,0c1.2-1,2.5-1.6,4-0.7c1.4-0.2,2.7-0.9,4.2-0.6c-2.7,2.5-6.3,1.8-9.5,2.6
	C357.1,152.5,356.5,152.3,356.9,151.6L356.9,151.6z"/>
<path class="st119" d="M333.5,446.8c-3.7-0.3-6.6-2.6-9.7-4.2c0-0.1,0.1-0.2,0.2-0.3c0.2-0.1,0.4-0.1,0.6-0.2
	C327.7,443.5,330.7,444.8,333.5,446.8L333.5,446.8z"/>
<path class="st120" d="M226.4,302.9c2.8,1.2,5.7,2,8,4c-3.2,0.1-5.5-2-8.1-3.3c-0.2-0.2-0.3-0.3-0.2-0.5
	C226.3,303,226.3,302.9,226.4,302.9L226.4,302.9z"/>
<path class="st121" d="M345.4,118.6c1.5-0.6,2-2.6,3.9-2.7c-2,2.9-4.6,5.3-7.2,7.7C342,121.1,344.7,120.5,345.4,118.6L345.4,118.6z"
	/>
<path class="st122" d="M350.2,114.6c-1-1.4,0.8-1.7,1.2-2.5c0.7-1.6-0.1-1.6-1.3-1.5c-0.2-0.2-0.2-0.3-0.2-0.5
	c0.1-0.2,0.1-0.2,0.2-0.2c0.9-0.6,2.1-1.4,3-0.5c1,1-0.2,2-0.7,2.9C351.9,113.2,351.4,114.3,350.2,114.6L350.2,114.6z"/>
<path class="st123" d="M333.2,367.5c-3-1.4-4.9-3.8-6.7-6.4C329.5,362.5,331.4,365,333.2,367.5z"/>
<path class="st124" d="M277.5,326.5c0.8,1.1,2.1,1.1,3.2,1.6c0.4,0.2,1.6,0.2,0.7,1.2c-2.4-1-4.8-1.9-7.2-2.8
	c-0.2-0.2-0.2-0.3-0.2-0.5c0.1-0.2,0.1-0.2,0.2-0.2C275.3,326,276.4,326.2,277.5,326.5L277.5,326.5z"/>
<path class="st125" d="M350.1,109.9c0,0.2,0,0.5,0,0.7c-2.1,1.5-4.2,2.9-6.9,2.6C345.3,111.7,347.7,110.7,350.1,109.9L350.1,109.9z"
	/>
<path class="st126" d="M344.8,153.6c0.2,0,0.4,0,0.7,0c2.5-0.3,5-0.5,7.4-1.3l0,0c0.3,0.4,1,0.5,0.7,1.3c-2,0.2-3.8,1.1-5.8,0.8
	C346.6,154.4,345.3,155.4,344.8,153.6z"/>
<path class="st127" d="M338.7,301.6c1.4,2,0.2,4.2,0.8,6.3c-0.1,1.1-0.1,2.1-0.2,3.2c-0.8,0.4-1.3,0.4-1.3-0.7
	c0.4-1.6,0.9-3.1,0.6-4.7C337.7,304.3,337.6,302.9,338.7,301.6L338.7,301.6z"/>
<path class="st128" d="M362.4,164.3c-0.3,0-0.5,0-0.8,0c-2.2-0.3-4.6,0.6-6.7-0.7C357.4,163.4,360,162.3,362.4,164.3L362.4,164.3z"
	/>
<path class="st129" d="M316.5,256.5c-3-1.4-6.5-0.6-9.4-2c0.2-0.1,0.3-0.2,0.5-0.3c1.1,0,2.2-0.2,3.2,0.2c2.1,1,4.3,0.2,6.4,0.8
	c0.2,0.2,0.3,0.4,0.4,0.6c0,0.3-0.2,0.5-0.4,0.6C316.9,256.5,316.7,256.5,316.5,256.5L316.5,256.5z"/>
<path class="st130" d="M386.4,94.3c-0.6,1.5-2.5,1-3.3,2.1c-1.1-0.2-2.2,1.4-3.4,0C381.9,95.5,383.9,94,386.4,94.3L386.4,94.3z"/>
<path class="st110" d="M244.7,299.6c-0.3,0-0.5,0-0.8,0c0.4-1.6,0.9-3.1,1.3-4.7c-1-1.4-1-2.7,0-4c0.2-0.2,0.4-0.4,0.7-0.7
	c0.2,0.3,0.4,0.6,0.3,1c0,1.1,0.2,2.2-0.2,3.3C245.4,296.1,245.6,298,244.7,299.6L244.7,299.6z"/>
<path class="st131" d="M365.9,503.5c1.1-2.3-1.2-4.5-0.3-6.8C366.4,498.9,368.7,501.1,365.9,503.5z"/>
<path class="st132" d="M317.2,256.5v-0.7c1.2-0.6,2.4-0.4,3.7-0.1c0.6,0,1.2,0.1,1.7,0.2c1.1,0.6,2.4-0.1,3.5,0.5
	c0.2-0.1,0.4,0,0.5,0.1c-0.2,0.2-0.4,0.4-0.7,0.7C323,257.5,320.1,256.1,317.2,256.5L317.2,256.5z"/>
<path class="st133" d="M274.1,325.8c0,0.2,0,0.5,0,0.7c-2.2-0.1-3.7-1.6-5.4-2.7C271.1,323,272.5,324.8,274.1,325.8L274.1,325.8z"/>
<path class="st134" d="M206.2,266.6h-0.6c-0.2-2.3,1.2-4.1,2-6.1c1.6,1.8-1,3.1-0.7,4.7C207.2,266,206.8,266.3,206.2,266.6
	L206.2,266.6z"/>
<path class="st135" d="M202.8,348c2.6,0.9,4.3,2.8,5.4,5.2C205.9,352,204.3,350,202.8,348z"/>
<path class="st136" d="M404.7,95.2c0.4-2.3,0.6-4.6,0.2-7C407.1,90.6,406.6,92.9,404.7,95.2z"/>
<path class="st137" d="M278.2,230.3c-0.2,0-0.4,0-0.7,0c-0.8-2-0.6-4,0-6c0.2-0.2,0.4-0.2,0.6,0c0,0.4,0,0.9,0,1.3
	c0.3,0.4,0.6,0.8,0.7,1.3c0.1,0.9,0.1,1.7-0.1,2.5C278.6,229.8,278.4,230.1,278.2,230.3L278.2,230.3z"/>
<path class="st138" d="M297.7,252.5c-3.1,1.5-5.9,0.1-8.7-0.8C291.9,251.4,294.7,252.5,297.7,252.5z"/>
<path class="st139" d="M214.2,246.2c0.5,2.4-1.8,4-1.9,6.3c-0.5,0.2-0.9,0.4-1.4,0.7C211.5,250.6,212.6,248.3,214.2,246.2
	L214.2,246.2z"/>
<path class="st140" d="M290.9,238.3c-0.5,0-1,0.1-1.3,0.6c-1.7,0.1-3.5,0.5-4.8-1.2l0.1-0.1C287.1,236.8,289.1,236.5,290.9,238.3z"
	/>
<path class="st141" d="M384.5,135.6c0.3-2.1,1.3-3.9,2.6-5.6c0.2-0.3,0.5-0.3,0.7,0C386.8,132,386.6,134.4,384.5,135.6L384.5,135.6z
	"/>
<path class="st142" d="M230.3,417.6c2.8,0.1,3.8,2.2,4.8,4.2C233.2,420.8,231.8,419.1,230.3,417.6z"/>
<path class="st143" d="M252.6,259.2c0.4-2-0.6-4.1,0.7-6c0.6,2.2,0.6,4.5,0,6.7C253,259.6,252.8,259.4,252.6,259.2L252.6,259.2z"/>
<path class="st144" d="M330.6,435.4c2-1,3.6,0.1,5.4,0.7c0.2,0.1,0.3,0.3,0.2,0.4s-0.2,0.2-0.2,0.2
	C334,437.2,332.3,436.1,330.6,435.4L330.6,435.4z"/>
<path class="st145" d="M335.3,129.4c0.9-0.3,1.4-1.4,2.5-1.3c-1.1,1.9-2.7,3.3-4.3,4.8C332.6,130.9,335.2,130.8,335.3,129.4
	L335.3,129.4z"/>
<path class="st146" d="M274.8,453.6c1.3-1,3.6-0.4,4-2.7C279.2,454.4,278.5,454.9,274.8,453.6z"/>
<path class="st147" d="M261.3,317.1c2.4-0.1,2.8,2.7,4.7,3.3c0,0.4,0,0.9,0,1.3C264.1,320.6,262.6,318.9,261.3,317.1L261.3,317.1z"
	/>
<path class="st148" d="M350.1,122c-0.9,0.7-1.8,1.3-2.7,2c0.8-2.5,2.9-4,4.6-5.7C352.4,120,350.7,120.7,350.1,122z"/>
<path class="st149" d="M226.4,302.9c0,0.2,0,0.5,0,0.7c-1.8-0.5-3.2-1.7-4.7-2.7C223.8,300.2,225.1,301.5,226.4,302.9z"/>
<path class="st150" d="M353.6,222.4c-0.9-2,0.4-3.7,0.6-5.5c0-0.6,0.2-1.1,0.8-1.3C355,217.9,354.6,220.2,353.6,222.4L353.6,222.4z"
	/>
<path class="st151" d="M328.6,136.8c0.9-0.3,1.4-1.4,2.5-1.3c-1.2,2-2.8,3.5-4.5,5c0-0.6,0-1.1,0-1.7
	C326.7,137.6,327.9,137.4,328.6,136.8L328.6,136.8z"/>
<path class="st152" d="M339.4,436.1c1.8-0.9,3.6-1.8,5.4-2.6c-0.9,2.1-2.9,2.6-4.7,3.2C339.7,436.6,339.5,436.4,339.4,436.1z"/>
<path class="st153" d="M393.2,91.6c-0.9,1.5-2.8,1.3-4,2.1c-0.8,0-1.5-0.1-2.3-0.1C388.8,92.5,390.8,91.5,393.2,91.6L393.2,91.6z"/>
<path class="st154" d="M287.6,420.7c-2.3,0.6-3.8-0.9-5.3-2.2C284.2,418.7,286,419.4,287.6,420.7z"/>
<path class="st155" d="M367.1,169.7c-0.3,0-0.5,0-0.8,0c0.3-2-2.4-2.7-1.9-4.8C366.1,166.1,367.1,167.6,367.1,169.7z"/>
<path class="st156" d="M274.9,418.6c1,1.5,0.9,3.1,0,4.7C274.3,421.7,273.8,420.2,274.9,418.6z"/>
<path class="st110" d="M202.1,276.4c0,2.6,0,5.2,0,7.8C201.2,281.6,201.2,279,202.1,276.4z"/>
<path class="st157" d="M195.5,306.3c1.2,1.4,0.4,3.1,0.6,4.7c-0.4,0-0.8,0-1.2,0C195.1,309.4,195.3,307.9,195.5,306.3z"/>
<path class="st158" d="M387.8,130.1c-0.2,0-0.5,0-0.7,0c0-0.4,0-0.9,0-1.3c1.4-1,1.1-3.2,2.9-3.9
	C389.9,126.8,388.8,128.4,387.8,130.1L387.8,130.1z"/>
<path class="st39" d="M284.2,330.5c1.9-1,3.2-0.6,4,1.5C286.7,332,285.4,331.4,284.2,330.5z"/>
<path class="st159" d="M340.5,114.4c0.3,0.3,0.6,0.5,0.9,0.8c-2-0.2-3.2,2.6-5.4,1.3C337.5,115.9,339,115.2,340.5,114.4z"/>
<path class="st160" d="M340.7,282.1c0.2,0.2,0.4,0.4,0.7,0.7c0.6,1.2,0.4,2.4,0.1,3.6c0,0.6-0.1,1.2-0.2,1.8c-0.2,0.3-0.4,0.3-0.6,0
	c-0.2,0-0.4,0-0.7,0c0.2-1.4,0.9-2.6,0.6-4C340.2,283.4,340.1,282.7,340.7,282.1L340.7,282.1z"/>
<path class="st161" d="M333.3,141.5c-0.9,0.7-1.8,1.4-2.7,2c0.5-1.9,1.6-3.2,3.4-4.1C333.8,140.1,333.5,140.8,333.3,141.5
	L333.3,141.5z"/>
<path class="st162" d="M306.4,136.1c-0.9,0.1-1.4,2-2.7,0.8c1.1-1,2.2-1.9,3.3-2.9l0.7,0.8C308,135.9,307.2,136,306.4,136.1
	L306.4,136.1z"/>
<path class="st163" d="M258,230.3c0.9-0.2,1.9-0.4,2.8-0.6c-0.7,1.9-2.9,1.6-4.1,2.7C256.5,231.3,257.6,231,258,230.3z"/>
<path class="st164" d="M259.4,280.7c-0.1,0.7,0.1,1.5-0.7,2c-0.2-0.2-0.4-0.4-0.6-0.7c0-1.2-0.4-2.4,0.7-3.4c0.6-0.2,0.9,0,0.7,0.7
	C259.4,279.8,259.4,280.3,259.4,280.7L259.4,280.7z"/>
<path class="st165" d="M269.5,429.8c-1.9-0.7-2-2.1-1.5-3.8C268.5,427.3,269,428.6,269.5,429.8z"/>
<path class="st166" d="M353.5,153.5c-0.2-0.4-0.4-0.8-0.7-1.3c1.4,0,2.8,0.1,4-0.7c0.2,0.4,0.4,0.8,0.7,1.3
	C356.2,153.1,354.8,153.3,353.5,153.5L353.5,153.5z"/>
<path class="st167" d="M344.1,128.7c-0.5,0.2-0.9,0.4-1.4,0.7c0.4-2,2-3.1,3.3-4.4c0,0.3,0.1,0.7,0.1,1
	C346.3,127.6,345.4,128.3,344.1,128.7L344.1,128.7z"/>
<path class="st168" d="M300.4,336.5c1.8-1,3.2-0.4,4,1.4C302.8,338,301.7,337.1,300.4,336.5z"/>
<path class="st169" d="M226.5,225.6c1,1.3,0.3,3.4,1.9,4.4c-0.3,0.1-0.6,0.2-0.9,0.4C225.5,229.2,226.1,227.4,226.5,225.6z"/>
<path class="st1" d="M282.3,341.8c-1.6,1.4-2.5-0.1-3.6-0.8c0.3-0.1,0.6-0.3,0.8-0.4C280.6,340.7,281.5,341.1,282.3,341.8
	L282.3,341.8z"/>
<path class="st170" d="M249.2,272c0.1-1.5,0.3-2.9,1.5-4c0.1,1.9-0.2,3.8-1.3,5.4c-0.3,0-0.5,0-0.8,0
	C248.8,272.9,249,272.4,249.2,272L249.2,272z"/>
<path class="st87" d="M266.7,179.1c0.3,0.2,1.3-0.3,0.7,0.7c-0.9,0.2-1.8,0.4-2.7,0.7c-0.5,0-1,0-1.4,0
	C264.2,179.6,265.4,179.2,266.7,179.1L266.7,179.1z"/>
<path class="st171" d="M253.8,400.4c-1.8-0.4-2.8-1.5-3.2-3.2C252.3,397.6,253,399.1,253.8,400.4z"/>
<path class="st172" d="M284.2,251.1c-2-0.3-4.1,0.6-6-0.6c2-0.5,4-0.5,6,0c0.2,0.1,0.3,0.3,0.2,0.4
	C284.3,251,284.3,251.1,284.2,251.1L284.2,251.1z"/>
<path class="st173" d="M241.2,330.5c0.2-0.9-1.2-1.8-0.1-2.7c0.9,1.2,1.7,2.5,2,4C242.1,331.9,241.8,330.9,241.2,330.5z"/>
<path class="st174" d="M204.1,288.9c1.8-0.1,2.6,0.9,2.7,2.6C205.6,290.9,204.7,290.1,204.1,288.9z"/>
<path class="st171" d="M237.5,424.1c2.1,0,3.2,1.3,3.7,3.1C239.6,426.6,238.5,425.3,237.5,424.1z"/>
<path class="st175" d="M242.6,428.7c1.7,0.2,3.4,0.4,3.2,2.7C244.7,430.5,243.6,429.6,242.6,428.7z"/>
<path class="st176" d="M266.7,257.1c0.1,1.6-1.5,2.2-2,3.4c-0.3,0-0.6-0.1-0.9-0.1C264.4,259.1,265,257.5,266.7,257.1L266.7,257.1z"
	/>
<path class="st177" d="M259.4,279.4c-0.2-0.2-0.4-0.4-0.7-0.7c-0.2-1.2,0.2-2.3,0.7-3.4c0.6-0.1,0.9,0,0.6,0.7c0,0.2,0,0.4,0,0.7
	C259.9,277.6,260.3,278.7,259.4,279.4L259.4,279.4z"/>
<path class="st178" d="M211.6,294.7c1.9-0.6,3,0.2,3.3,2.1C213.6,296.5,212.6,295.6,211.6,294.7z"/>
<path class="st179" d="M218.6,370.1c-1.6-0.5-2.7-1.4-3-3.1C217,367.7,218.4,368.3,218.6,370.1z"/>
<path class="st180" d="M284.2,251.1c0-0.2,0-0.4,0-0.6c1.4,1.4,3.6-0.5,4.8,1.2C287.4,251.6,285.7,252.4,284.2,251.1L284.2,251.1z"
	/>
<path class="st181" d="M261.3,272c-0.3-0.5-0.5-1-0.8-1.5c0.1-0.9,0.1-1.8,0.7-2.6C262.5,269.2,260.8,270.6,261.3,272L261.3,272z"/>
<path class="st182" d="M365,184c0-1.6,0.2-3,1.4-4.1C366.4,181.4,366.6,183,365,184z"/>
<path class="st183" d="M202.8,298.3c-1,1-2.2,0.5-3.3,0.6c-0.2-0.1-0.3-0.2-0.2-0.4c0.1-0.1,0.1-0.2,0.2-0.2
	C200.6,297.6,201.7,297.7,202.8,298.3z"/>
<path class="st184" d="M270.1,396.5c1.9-0.1,2.4,1.3,2.7,2.7C271.4,398.7,270.7,397.6,270.1,396.5z"/>
<path class="st185" d="M218.3,405.3c2.1-0.1,2.5,1.3,2.6,3C220,407.2,219.1,406.2,218.3,405.3z"/>
<path class="st186" d="M325.1,121.9c0.3,0.2,0.5,0.5,0.8,0.7c-1.1,0.2-1.9,1.9-3.3,0.8C323.4,122.9,323.9,121.8,325.1,121.9
	L325.1,121.9z"/>
<path class="st187" d="M306.4,432.2c-1.5,0.7-2.5,0.4-2.6-1.5C304.7,431.2,305.6,431.7,306.4,432.2z"/>
<path class="st188" d="M401.1,88.2c0.3,0.2,1.1,0.4,0.8,0.5c-1,0.4-2.1,1.6-3.3,0.3C399.4,88.8,400.2,88.5,401.1,88.2z"/>
<path class="st189" d="M318.5,483.8c1.6-0.7,2.5-0.4,2.6,1.5C320.3,484.8,319.4,484.3,318.5,483.8z"/>
<path class="st190" d="M274.1,178.5c-0.5-0.8-1.3-0.6-2.1-0.7c0.8-0.8,1.8-0.6,2.7-0.7c0.3,0.1,0.6,0.2,0.9,0.3
	C275.1,177.8,274.6,178.1,274.1,178.5z"/>
<path class="st191" d="M230.4,315.8c-1.7,1-2.1-0.3-2.6-1.5C228.7,314.8,229.5,315.3,230.4,315.8z"/>
<path class="st192" d="M279.4,234.4c1.5-0.9,1.7,1.2,2.8,1.2l0,0c0.1,0.6,0,0.9-0.7,0.7C280.6,235.9,280,235.2,279.4,234.4z"/>
<path class="st193" d="M281.5,236.3c0.2-0.2,0.5-0.4,0.7-0.7c0.8,0.5,2,0.7,2,2C283,237.8,282.2,237.1,281.5,236.3L281.5,236.3z"/>
<path class="st194" d="M289.6,344.8c-1.2,0.7-2.2,1-2.4-0.9C288,344.1,288.8,344.4,289.6,344.8z"/>
<path class="st195" d="M199.5,298.3c0,0.2,0,0.4,0,0.5c-0.2,0.5-0.5,0.9-0.7,1.4c-0.6,0.2-1.2,0.4-1.9,0.7
	C197.4,299.6,198.1,298.7,199.5,298.3z"/>
<path class="st160" d="M340.1,299.3c0.2-1.7-0.6-3.5,0.6-5.1C340.7,295.9,340.8,297.6,340.1,299.3z"/>
<path class="st196" d="M237.8,242.5c0,0.2,0,0.4,0,0.6c-1.3-0.5-2.9-0.3-4-1.5C235.2,241.7,236.7,241,237.8,242.5L237.8,242.5z"/>
<path class="st197" d="M214.2,400.5c1.5,0.3,2.9,0.6,2.2,2.6C215.7,402.2,215,401.4,214.2,400.5z"/>
<path class="st198" d="M336.7,167.1c-0.9-0.1-2,0.3-2.7-0.6c1.5,0,3.1-0.1,4.6-0.1l0.1,0.1c0.2,0.3,0.2,0.5,0,0.8
	c-0.2,0.2-0.5,0.3-0.8,0.3C337.5,167.5,337,167.4,336.7,167.1L336.7,167.1z"/>
<path class="st199" d="M370.3,101.9c0,1.1-1,1.7-1.4,2.6c-0.4-0.2-0.9-0.4-1.3-0.7C368.3,102.9,369.3,102.3,370.3,101.9L370.3,101.9
	z"/>
<path class="st40" d="M344.8,153.6c0.8,1,1.9,0.5,2.9,0.7c-1.3,0.6-2.8,0.7-4.2,0.7C343.6,154.3,344.1,153.9,344.8,153.6
	L344.8,153.6z"/>
<path class="st200" d="M352.8,501.2c1.2-0.7,2.2-0.8,2.5,0.9C354.5,501.8,353.7,501.5,352.8,501.2z"/>
<path class="st201" d="M229.8,230.9c1-1,2.2-0.7,3.9-0.2c-1.3,0.2-2,0.3-2.7,0.4C230.5,231,230.2,230.9,229.8,230.9z"/>
<path class="st8" d="M260,276c-0.2-0.2-0.4-0.4-0.6-0.7c0-0.8,0-1.5,0.6-2.2C260.2,274.1,261.3,275,260,276z"/>
<path class="st202" d="M246.7,351.1c-0.1,0.5-0.2,1-0.4,2c-0.4-1.6-0.6-2.7,0.2-3.8C246.5,350,246.6,350.5,246.7,351.1z"/>
<path class="st203" d="M257.2,357.6c0.1-0.7,0.2-1.5,0.4-2.7c0.5,1.7,0.7,2.8-0.2,3.8C257.3,358.4,257.3,358,257.2,357.6z"/>
<path class="st204" d="M225.7,368c1.5-0.6,2.2-0.1,2,1.5C227,369,226.4,368.5,225.7,368z"/>
<path class="st205" d="M306.4,254.5h-2.7c0.7-1,1.6-0.4,2.2-0.8c0.4,0,0.8,0.1,1.2,0.1c0.2,0.1,0.3,0.3,0.2,0.4
	c-0.1,0.1-0.2,0.2-0.2,0.2l0,0C306.9,254.5,306.6,254.5,306.4,254.5L306.4,254.5z"/>
<path class="st3" d="M322.9,242.5c1.5,0,3-0.6,4.3,0.5C325.8,243,324.3,243.1,322.9,242.5z"/>
<path class="st206" d="M374.4,146.3c0.5-1.4,1.5-2.2,3-2.1C376.6,145.3,375.7,146.1,374.4,146.3z"/>
<path class="st207" d="M245.9,290.8c0-0.2,0-0.4,0-0.7c0.1-0.9-0.3-1.9,0.5-2.9c0.1,0.9,0.2,1.6,0.3,2.3c0,0.4-0.1,0.8-0.1,1.2
	C246.3,291.1,246.1,291.1,245.9,290.8L245.9,290.8z"/>
<path class="st3" d="M316.2,241.8c1.5,0,2.9,0,4.4-0.1c0,0.2,0,0.4,0,0.6C319.1,242.4,317.5,242.5,316.2,241.8z"/>
<path class="st208" d="M381.1,140.5c-0.1-1.6,0.7-2.5,2.1-3C383.1,138.9,382.2,139.7,381.1,140.5z"/>
<path class="st164" d="M340.7,288.1c0.2,0,0.4,0,0.6,0c0.1,1.5,0,2.9-0.5,4.3C340.8,291,340.8,289.6,340.7,288.1L340.7,288.1z"/>
<path class="st140" d="M296.8,239.8c1.4,0.1,3-0.6,4.3,0.5C299.6,240.3,298.1,240.4,296.8,239.8z"/>
<path class="st209" d="M399.2,104.5c0.3,0.1,0.6,0.1,0.9,0.2c0,1.4-0.6,2.4-1.5,3.3C398.3,106.8,399.1,105.7,399.2,104.5z"/>
<path class="st210" d="M295,334.5c0.3-0.6,0.8-0.7,1.4-0.7c-0.5,0.8,2.4,0,0.6,1.4C296.3,335,295.6,334.8,295,334.5L295,334.5z"/>
<path class="st211" d="M339.4,436.1c0.2,0.2,0.4,0.4,0.7,0.6c-1.3,0.3-2.7,0.4-4,0c0-0.2,0-0.4,0-0.6
	C337.1,436.1,338.3,436.1,339.4,436.1L339.4,436.1z"/>
<path class="st212" d="M278.1,224.2c-0.2,0-0.4,0-0.6,0c-0.2-1,0.4-1.8,0.7-2.7c0.2,0.4,0.4,0.9,0.6,1.3
	C278.8,223.4,278.7,223.9,278.1,224.2L278.1,224.2z"/>
<path class="st213" d="M249.2,232.9c1.1,0.2,2.4-0.4,3.4,0.7c-1.3,0.4-2.7,0.4-4,0C248.8,233.4,249,233.2,249.2,232.9L249.2,232.9z"
	/>
<path class="st214" d="M239.2,232.2c0.2-0.2,0.4-0.4,0.7-0.6c0.8,0,1.7,0,2.7,0c-0.6,1.1-1.6,0.4-2.2,0.8
	C239.9,232.4,239.6,232.3,239.2,232.2L239.2,232.2z"/>
<path class="st17" d="M320.9,255.8c-1.2,0-2.4,0-3.7,0.1c0-0.2,0-0.4,0-0.6C318.4,255.2,319.7,255.2,320.9,255.8L320.9,255.8z"/>
<path class="st215" d="M263.4,261.2c0.8,1.1,0.8,1.8-0.8,1.8C262.8,262.5,263.1,261.8,263.4,261.2z"/>
<path class="st17" d="M326.1,256.5c-1.2,0-2.5,0.5-3.5-0.5C323.8,255.9,325,255.8,326.1,256.5z"/>
<path class="st216" d="M346,430c-0.9-1.1-0.9-2.2,0-3.3C346.3,427.8,346.3,428.9,346,430z"/>
<path class="st2" d="M309.5,241.1c1.2,0,2.6-0.5,3.7,0.5C311.9,241.7,310.6,241.7,309.5,241.1z"/>
<path class="st217" d="M245.9,290.8c0.2,0,0.4,0,0.6,0c0.1,1.3,0,2.5-0.5,3.7C245.9,293.2,245.9,292,245.9,290.8z"/>
<path class="st218" d="M373.5,99.7c0.8,0.4,0.3,0.9,0.1,1.4c-0.6,0-1.1-0.1-1.3-0.7C372.7,100.2,373.1,100,373.5,99.7L373.5,99.7z"
	/>
<path class="st193" d="M291.3,239.1c1.2,0,2.6-0.5,3.6,0.5C293.7,239.7,292.5,239.8,291.3,239.1z"/>
<path class="st29" d="M307.1,254.5c0-0.2,0-0.4,0-0.6c1.3-0.1,2.5,0,3.7,0.5C309.5,254.4,308.3,254.5,307.1,254.5L307.1,254.5z"/>
<path class="st2" d="M307.1,240.4c0,0.2,0,0.4,0,0.6c-1.3,0-2.6,0.2-3.7-0.5C304.6,240.4,305.8,240.4,307.1,240.4z"/>
<path class="st2" d="M354.2,163.8c-1.1,1.1-2.4,0.5-3.7,0.5C351.6,163.7,352.9,163.7,354.2,163.8z"/>
<path class="st164" d="M341.5,286.3c0-1.2-0.1-2.4-0.1-3.6c0.2,0,0.4,0,0.6,0C342,284,342,285.2,341.5,286.3L341.5,286.3z"/>
<path class="st96" d="M282.2,196.6c0.4-0.1,0.9-0.8,1.3,0c-0.4,0.7-0.9,1.4-1.3,2c0-0.2,0-0.4,0-0.7
	C281.8,197.6,281.8,197.1,282.2,196.6z"/>
<path class="st219" d="M279.5,417.3c-1.1,1-2.2,0.9-3.3,0.1C277.3,416.8,278.4,416.9,279.5,417.3z"/>
<path class="st140" d="M307.1,239.7c-3.9,0-7.7-0.4-11.4-1.3c1.9-2.1,4.6-1.5,6.9-1.9c7.1-1.4,13.4-4.2,19.7-7.8
	c6.4-3.7,11.1-9,15.5-14.5c5.6-7.1,9-15.3,10.4-24.3c1.2-7.4,0.4-14.6-0.9-21.9c-0.1-0.8-0.5-1.5,0.1-2.2c2.2-0.3,3.1,0.5,3.6,2.8
	c1.6,8.5,1.8,16.8,0,25.3c-2.2,10.8-7.2,20.1-14.5,28c-6.7,7.2-14.8,12.7-24.2,15.9C310.6,238.3,308.8,239,307.1,239.7L307.1,239.7z
	"/>
<path class="st193" d="M347.4,165.7c2.1,9.6,2.7,19.2,0.4,29c-2.5,11.1-8.5,19.8-16.3,27.7c-8.9,9-19.9,13.3-32,15.2
	c-1.3,0.2-2.6,0.5-3.9,0.7c-1.6,0-3.1,0-4.7,0c-1.9-1.3-4-0.3-6-0.7c0.4-2.1,2.1-1.2,3.2-1.2c7.6,0,15.1,0.1,22.4-2.7
	c0.9-0.4,1.9-0.6,2.6-1.4l0,0c16.1-7.1,26.8-19,32.3-35.6c1.2-0.6,1.2-1.7,1.4-2.8c2-9.4,1.6-18.8-0.7-28.1
	C346.5,165.7,347,165.7,347.4,165.7L347.4,165.7z"/>
<path class="st110" d="M338.7,301.6c0,1.3,0,2.7,0,4c-2.6,0.7-5.1,1.4-7.6,2.2c-15.4,5.2-31.4,6.5-47.5,5.6
	c-6.1-0.3-12.4-0.7-18.3-2.8c-2.5-0.9-5.5,0.1-7.9-1.7c-0.2-1.3-0.4-2.7-0.7-4c1.4-1.2,3-0.8,4.5-0.3c10.8,3.1,21.8,4,32.9,4
	c12.8-0.1,25.4-2,37.6-6.2C333.9,301.6,336.2,300.2,338.7,301.6L338.7,301.6L338.7,301.6z"/>
<path class="st164" d="M340.7,282.1c0,0.7,0,1.3,0,2c-3.9,0.3-7,2.7-10.6,3.9c-8.6,2.8-17.3,4.6-26.3,5.6
	c-14.4,1.6-28.5,0.2-42.5-3.7c-3.4-0.9-3.8-2.4-2.7-5.2c2.7,0,5.3,0.9,7.8,1.7c7.2,2.1,14.6,2.8,22,3.1c11.7,0.5,23.1-0.9,34.4-4.1
	c5.1-1.5,10.1-3.6,15-5.7c1.1-0.5,2.2-1.2,3.5-1.1C341.5,279.9,341.3,281,340.7,282.1L340.7,282.1z"/>
<path class="st220" d="M340.1,288.1c-0.1,1.8,0.4,3.7-0.7,5.4c-6.1,3.7-13,5.3-19.8,7c-10.1,2.5-20.3,2.9-30.6,2.8
	c-9.9-0.1-19.6-1.9-29.1-4.5c-1.2-0.3-2.3-0.9-3.1-1.9c0.2-1.3,0.4-2.7,0.7-4c13.6,4.3,27.6,6.1,41.8,5.3c7.3-0.4,14.5-1.5,21.7-3.4
	C327.5,293.1,333.8,290.9,340.1,288.1L340.1,288.1z"/>
<path class="st217" d="M206.2,266.6c0.2-0.4,0.5-0.9,0.7-1.4c4.1,2.2,7.2,5.5,10.6,8.5c6.1,5.4,13,9.3,20,13.2
	c2.5,1.4,4.7,3.4,7.7,3.9c0,1.3,0,2.7,0,4c-2.2,0.4-3.9-1-5.6-1.9c-11.6-6-22.7-12.7-32.1-21.9C206,269.6,205.4,268.5,206.2,266.6
	L206.2,266.6z"/>
<path class="st212" d="M336.7,167.1h1.3c2.5,3,2.6,6.8,2.9,10.4c0.5,6.3-0.4,12.5-2,18.5c-0.1,0.9-0.5,1.7-0.9,2.5
	c-0.8,1.5-1.9,2.9-2.2,4.6c-0.1,0.3-0.3,0.6-0.4,0.8c-4.3,7.4-10.2,13.4-16.8,18.6c-7.1,5-15.2,6.9-23.7,7.3
	c-4.2,0.2-8.5,0.5-12.7-0.7c-1.5-0.4-3-0.8-4.1-2.2c0-0.4,0-0.9,0-1.3c5.1,1,10.2,2.1,15.4,1.9c7.9-0.3,15.3-2.2,22.2-6.2
	c4.1-2.4,7.9-5.2,10.9-8.6c3.9-4.4,7.4-9.3,9.2-15c1.2-3.9,2.6-7.7,2.8-11.9C339.1,179.3,338.7,173.1,336.7,167.1L336.7,167.1z"/>
<path class="st198" d="M278.2,230.3c0-0.2,0-0.5,0-0.7c1.3-1.1,2.7-0.6,4.2-0.4c8,1.5,16,1.4,23.8-1c15.5-4.6,26.2-14.5,32.2-29.4
	c3.7-9.1,4.2-18.6,2.3-28.3c-0.3-1.4-1-2.8,0-4.2c0.7,0,1.4,0,2,0c2.5,8.7,2.7,17.4,0.6,26.3c-1.9,8.3-5.6,15.5-10.7,22.2
	c-2.1,2.7-4.9,4.5-7.4,6.7c-2,2-4.2,3.5-6.7,4.7l-0.7,0.7c-2.1,0.7-4,1.8-6.1,2.7c-1.3,0.5-2.8,0.5-4,1.3c-3.7,0.2-7.3,1-10.9,1.5
	c-6.1,0.9-11.9-0.5-17.7-1.4C278.8,231,278.5,230.5,278.2,230.3L278.2,230.3z"/>
<path class="st103" d="M345.4,196.6c-1.1,6.3-4.2,11.6-7.8,16.8c-5.5,7.9-12.9,13.7-21.3,18.3c-1,0.6-2.1,0.6-3.2,0.6
	c3.4-2.9,7.5-4.6,11.1-7.1c9-6.4,15.4-14.7,19.2-25.1C344,198.8,344.4,197.6,345.4,196.6L345.4,196.6z"/>
<path class="st105" d="M318.5,226.2c2.1-1.8,4.2-3.5,6.7-4.7C324,224.5,321.4,225.6,318.5,226.2z"/>
<path class="st105" d="M311.8,229.6c1.7-1.6,3.5-3,6.1-2.7C316.2,228.6,314.2,229.5,311.8,229.6z"/>
<path class="st105" d="M307.8,231c1.1-1.3,2.5-1.4,4-1.3C310.6,230.6,309.2,230.9,307.8,231z"/>
<path class="st110" d="M243.9,299.6c-0.4,3-1.6,3.2-4.3,2c-13.6-6-25.4-14.7-36.7-24.2c0.2-0.9,0.4-1.8,0.6-2.7
	c2-0.8,3.1,0.9,4.2,1.9C218.2,286.7,230.6,293.8,243.9,299.6L243.9,299.6z"/>
<path class="st221" d="M281.5,217.5c3.3,0,6.6,0.7,9.9,0.9c9.5,0.4,17.6-2.4,24.9-8.4c9.8-8.1,14.1-18.5,13.6-31.1
	c-0.1-3.6-1.2-7-2-10.5c2.4-0.3,2.9,1.5,3.1,3.1c1.5,9.1,1.3,18-2.9,26.6c-5.6,11.6-14.8,18.8-27,21.7c-6.1,1.5-12.7,1.3-19-0.9
	C281.5,218.7,280.5,218.6,281.5,217.5L281.5,217.5z"/>
<path class="st50" d="M344.1,128.7c0.7-0.9,1.4-1.8,2-2.7c5.3,5.9,10.2,12.2,14.1,19.1c1,1.8,1.8,3.8,2.6,5.7
	c-1.3,0.2-2.7,0.4-4,0.7c-2.7-6.3-6.8-11.7-10.8-17.2C346.7,132.5,344.8,131.1,344.1,128.7L344.1,128.7z"/>
<path class="st222" d="M273.5,212.1c-1,2.3-1.8,2.1-4,0.6c-7.4-5.1-11.3-12.6-14.5-20.5c-0.5-1.2-2-3.1,0.3-4.3
	c2.5,2.8,2.6,6.7,4.2,9.9c3,5.9,7.3,10.5,12.6,14.2C272.5,212.2,273,212.1,273.5,212.1L273.5,212.1z"/>
<path class="st190" d="M282.2,196.6c0,0.4,0,0.9,0,1.4c-0.4,0.2-0.9,0.4-1.3,0.7c-1.3-3.6-5.4-5.2-6.7-9c-1-2.9-2-5.8-2.1-9
	c0-1.5,0.4-2.4,2-2.3C273.6,185.9,276.1,192.1,282.2,196.6L282.2,196.6z"/>
<path class="st103" d="M328.6,136.8c-0.4,0.9-1.1,1.6-2,2c-2.3-0.3-3.8-2.3-5.4-3.6c-2.3-2-5.9-1.5-7.4-4.5c0.9-1.4,1.7-1.8,3.5-0.8
	C321.1,132.2,324.9,134.4,328.6,136.8L328.6,136.8z"/>
<path class="st223" d="M306.4,136.1c0.4-0.4,0.9-0.9,1.4-1.3c0.4-0.2,0.9-0.4,1.3-0.7c4,2.5,8.7,3.7,12.2,6.9c0.7,0.6,1.5,1,1.9,1.8
	c-0.2,0.6-0.7,1.1-1.3,1.3c-0.3,0-0.8,0.1-1,0C316.6,140.6,311,139.2,306.4,136.1z"/>
<path class="st162" d="M323.2,142.8c-4.4-2.1-8.1-5.6-13-6.9c-0.8-0.2-1.1-1-1.1-1.9c4-0.7,6.6,2.4,9.9,3.7c1.5,0.6,2.7,1.9,4.3,2.5
	C325,141,324.7,142,323.2,142.8L323.2,142.8z"/>
<path class="st224" d="M340.7,166.4c3.8,14.2,2.3,27.9-5.2,40.6c-4.8,8.2-11.7,14.6-20,18.8c-6.8,3.4-14.2,5.3-22.1,5.4
	c-5.2,0.1-10-1.6-15.1-1.6c0-0.9,0-1.8,0-2.7c14.2,3.9,27.7,2.7,40.3-5.4c6.3-3.9,11.3-9,14.9-15.4c0.6-1,1.3-1.8,1.9-2.8
	c0.6-1.6,1.3-3.2,2-4.7c0.2-0.7,0.4-1.3,0.7-2c3.4-9.8,3.2-19.7,0.7-29.6c0-0.2,0-0.4,0-0.7C339.4,166.4,340.1,166.4,340.7,166.4
	L340.7,166.4z"/>
<path class="st225" d="M338.7,301.6c-7.4,1.5-14.4,4.6-21.9,5.6c-8.7,1.1-17.4,2.5-26.3,2.2c-10.8-0.4-21.4-1.6-31.8-4.3
	c-0.6-0.2-1.3,0-2,0c0-1.1,0-2.2,0-3.4c1.3-0.9,2.6-0.3,3.9,0c14.6,4,29.4,5.2,44.4,3.6c10.1-1,20.1-3.1,29.6-6.7
	c1.5-0.6,3.1-1.6,4.8-0.3C339.1,299.3,338.9,300.5,338.7,301.6L338.7,301.6z"/>
<path class="st226" d="M256.7,296.9c10.8,3.2,21.8,5.2,33.2,5.5c16.2,0.3,31.9-2.2,47-8.2c0.8-0.3,1.7-0.4,2.6-0.6
	c0,0.9,0,1.8,0,2.7c-6,2.8-12.2,4.7-18.6,6.3c-7.9,1.9-16,2.7-24.2,3.1c-10.1,0.4-20-0.6-29.9-2.7c-3.4-0.7-7.1-0.7-10-3.3
	C256.7,298.7,256.7,297.8,256.7,296.9L256.7,296.9z"/>
<path class="st160" d="M256.7,299.6c9.9,3.1,20.2,4.2,30.4,5.2c5.1,0.5,10.3-0.4,15.5-0.6c8.7-0.2,17-2.3,25.3-4.7
	c3.8-1.1,7.3-3.2,11.5-3.4c0,0.7,0,1.3,0,2c-4.9,1.5-9.8,3-14.7,4.3c-7.8,2.1-15.8,3.5-23.9,4c-15,1-29.7-0.8-44.1-5
	C256.7,300.9,256.7,300.2,256.7,299.6L256.7,299.6z"/>
<path class="st227" d="M338.7,167c3.3,9.9,3.4,19.8-0.7,29.6c0.4-4.7,2.1-9.3,2.1-14.1c0-5.3-0.7-10.4-2.1-15.5
	C338.3,167.1,338.5,167.1,338.7,167L338.7,167z"/>
<path class="st227" d="M335.3,203.4c-3.7,7.8-8.9,14.3-16.8,18.2c5-4.2,10.1-8.3,13.6-14C333.1,206.1,333.5,204.2,335.3,203.4
	L335.3,203.4z"/>
<path class="st227" d="M337.4,198.7c0,1.9-0.8,3.4-2,4.7C335,201.4,336.1,200,337.4,198.7z"/>
</svg>
